<svg xmlns="http://www.w3.org/2000/svg" viewBox="0 0 654.44 235.38"><defs><style>.a{fill:#fff;}</style></defs><path class="a" d="M99.85,59.58h2.58L116.71,81V59.58h2.65V85.34h-2.58L102.5,64V85.34H99.85Z" transform="translate(-2.77 -4.08)"/><path class="a" d="M125.87,84.69a2.43,2.43,0,0,1-.63-1.78V59.58h17.3v2.35H128V71h13.47v2.35H128V83h14.58v2.36H127.63A2.32,2.32,0,0,1,125.87,84.69Z" transform="translate(-2.77 -4.08)"/><path class="a" d="M150.82,84.77a3.19,3.19,0,0,1-.81-1.83l-4.38-23.36h2.68l4,22.22h0l6.48-20.86H160a1.46,1.46,0,0,1,1.06.39,2.82,2.82,0,0,1,.67,1.19l5.74,19.28h0l4-22.22h2.69L169.8,82.94a3.32,3.32,0,0,1-.81,1.83,2.22,2.22,0,0,1-1.62.57h-1.1L160,64.58h0l-6.44,20.76h-1.11A2.21,2.21,0,0,1,150.82,84.77Z" transform="translate(-2.77 -4.08)"/><path class="a" d="M191.44,84.77a3.19,3.19,0,0,1-.81-1.83l-4.38-23.36h2.68l4,22.22h0l6.48-20.86h1.14a1.48,1.48,0,0,1,1.07.39,2.72,2.72,0,0,1,.66,1.19l5.74,19.28h0l4-22.22h2.68l-4.38,23.36a3.19,3.19,0,0,1-.81,1.83,2.21,2.21,0,0,1-1.61.57h-1.11l-6.25-20.76h0l-6.44,20.76h-1.1A2.22,2.22,0,0,1,191.44,84.77Z" transform="translate(-2.77 -4.08)"/><path class="a" d="M219.37,59.58h2.72V85.34h-2.72Z" transform="translate(-2.77 -4.08)"/><path class="a" d="M228.34,59.58h2.58L245.2,81V59.58h2.65V85.34h-2.58L231,64V85.34h-2.65Z" transform="translate(-2.77 -4.08)"/><path class="a" d="M254.36,84.71a2.39,2.39,0,0,1-.63-1.77V59.58H264.4a10.43,10.43,0,0,1,4.79,1.05,7.68,7.68,0,0,1,3.2,3A8.54,8.54,0,0,1,273.53,68v8.1q0,4.52-2.28,6.86c-1.52,1.56-3.76,2.34-6.7,2.34h-8.43A2.35,2.35,0,0,1,254.36,84.71Zm10.12-1.8a6.15,6.15,0,0,0,4.72-1.71,7.15,7.15,0,0,0,1.61-5.06V68A5.71,5.71,0,0,0,269,63.68,6.6,6.6,0,0,0,264.33,62h-7.88v20.9Z" transform="translate(-2.77 -4.08)"/><path class="a" d="M281.92,84.49a7.87,7.87,0,0,1-3-3.24,10.48,10.48,0,0,1-1.08-4.86V68.52a10.48,10.48,0,0,1,1.08-4.86,7.93,7.93,0,0,1,3-3.24,8.8,8.8,0,0,1,4.52-1.14h3.9a8.81,8.81,0,0,1,4.53,1.14,7.93,7.93,0,0,1,3,3.24A10.48,10.48,0,0,1,299,68.52v7.87a10.34,10.34,0,0,1-1.08,4.84,8,8,0,0,1-3.06,3.24,8.73,8.73,0,0,1-4.51,1.16h-3.93A8.71,8.71,0,0,1,281.92,84.49Zm8.35-1.29a5.48,5.48,0,0,0,4.34-1.88,7.14,7.14,0,0,0,1.66-4.93V68.52a7.14,7.14,0,0,0-1.66-4.93,5.51,5.51,0,0,0-4.34-1.88h-3.75a5.51,5.51,0,0,0-4.34,1.88,7.14,7.14,0,0,0-1.66,4.93v7.87a7.18,7.18,0,0,0,1.64,4.93,5.42,5.42,0,0,0,4.32,1.88Z" transform="translate(-2.77 -4.08)"/><path class="a" d="M307.42,84.77a3.25,3.25,0,0,1-.81-1.83l-4.38-23.36h2.69l4,22.22h0l6.48-20.86h1.14a1.48,1.48,0,0,1,1.07.39,2.72,2.72,0,0,1,.66,1.19l5.74,19.28h0l4-22.22h2.68L326.4,82.94a3.19,3.19,0,0,1-.81,1.83,2.21,2.21,0,0,1-1.61.57h-1.11l-6.25-20.76h0l-6.44,20.76H309A2.22,2.22,0,0,1,307.42,84.77Z" transform="translate(-2.77 -4.08)"/><path class="a" d="M138.39,144.25l-8.51,4.91h-30V97.81h30l8.51,4.91Zm-31.18-39.84v38.15h23.84V104.41Z" transform="translate(-2.77 -4.08)"/><path class="a" d="M158.93,126.05v16.51h21.94v6.6H151.59V97.81h29.28v6.6H158.93v15h17.54v6.6Z" transform="translate(-2.77 -4.08)"/><path class="a" d="M231.78,97.81l-18.34,51.35h-9.1L186,97.81h7.41l15.41,43.8H209l15.41-43.8Z" transform="translate(-2.77 -4.08)"/><path class="a" d="M247.18,126.05v16.51h21.94v6.6H239.85V97.81h29.27v6.6H247.18v15h17.54v6.6Z" transform="translate(-2.77 -4.08)"/><path class="a" d="M279.39,149.16V97.81h7.34v44.75h19v6.6Z" transform="translate(-2.77 -4.08)"/><path class="a" d="M353.05,144.61l-8.51,4.92H323l-8.51-4.92V102.36L323,97.44h21.5l8.51,4.92ZM321.87,104v38.89h23.84V104Z" transform="translate(-2.77 -4.08)"/><path class="a" d="M366.25,149.16V97.81h25.6l8.51,4.91v21.79l-8.51,4.92H373.59v19.73Zm7.34-44.75v18.42H393V104.41Z" transform="translate(-2.77 -4.08)"/><path class="a" d="M456.85,149.16V107.35h-.14l-15.12,41.81h-7.33l-15-41.81h-.15v41.81h-7V97.81h10.34l15.41,42.84H438l15.48-42.84h10.34v51.35Z" transform="translate(-2.77 -4.08)"/><path class="a" d="M484.36,126.05v16.51H506.3v6.6H477V97.81H506.3v6.6H484.36v15H501.9v6.6Z" transform="translate(-2.77 -4.08)"/><path class="a" d="M523.9,110.35v38.81h-7.33V97.81h6.67l26.56,38.81H550V97.81h7.33v51.35h-6.67l-26.56-38.81Z" transform="translate(-2.77 -4.08)"/><path class="a" d="M588,104.41v44.75h-7.33V104.41h-14.6v-6.6h36.53v6.6Z" transform="translate(-2.77 -4.08)"/><path class="a" d="M657.21,141.44v6.16H609.38v-6.16Z" transform="translate(-2.77 -4.08)"/><polygon class="a" points="96.86 43.29 116.58 43.46 70.34 0 0 149.35 108.22 235.38 156.02 157.54 128.42 157.54 104.42 204.38 24.89 141.77 81.17 35.17 96.86 43.29"/></svg>