<svg id="aecc1f94-190e-43b7-9567-02347d9abefb" data-name="Layer 3" xmlns="http://www.w3.org/2000/svg" viewBox="0 0 495 482.75"><defs><style>.a3342c2d-3094-4a15-94e6-5466cec5a00a{fill:#300;}.b8db2238-8bc5-444c-9b48-076391edcc03{fill:#fd9900;}</style></defs><path class="a3342c2d-3094-4a15-94e6-5466cec5a00a" d="M420.23,485.24H78.77c-.44-1-1.38-.85-2.22-1a76.65,76.65,0,0,1-15.27-3.71C28.68,468.15,9.07,444.91,3,410.46c-.14-.77-.09-1.59-1-2V79.26c1-.45.86-1.39,1-2.22A72.57,72.57,0,0,1,6.63,62C19,29.25,42.25,9.6,76.78,3.46c.78-.14,1.6-.09,2-1H420.7c.83,1.42,2.37,1.07,3.59,1.29a86,86,0,0,1,48.45,25.94A86.3,86.3,0,0,1,496,77.27c.12.78.09,1.6,1,2V408.47c-1,.45-.86,1.39-1,2.22A76.93,76.93,0,0,1,492.29,426c-12.39,32.58-35.61,52.22-70.07,58.3C421.45,484.41,420.62,484.36,420.23,485.24ZM203.31,292.14c12.09,0,24.18.05,36.26-.05,1.83,0,2.55.61,3.11,2.27,5.19,15.28,10.48,30.53,15.7,45.8.69,2,1.63,3.38,4.11,3.37,14.05-.07,28.09,0,42.14,0,2.62,0,3.22-.84,2.56-3.36-.16-.61-.38-1.2-.58-1.79Q269.52,233.69,232.47,129c-.77-2.15-1.84-3-4.05-3q-25.54.06-51.09,0c-2.16,0-3.14.75-3.12,3A62.08,62.08,0,0,1,170.45,150Q151,205.7,131.71,261.42,118.29,300,104.89,338.68c-1.35,3.91-.69,4.81,3.4,4.81h36c3.76,0,4.39-.46,5.55-4,4.84-15,9.72-30,14.49-45,.56-1.73,1.19-2.44,3.18-2.42C179.46,292.2,191.39,292.14,203.31,292.14Zm125.81-31.3q0,39,0,77.92c0,4.47.51,5,5,5h36.72c3.82,0,4.45-.58,4.45-4.29q0-78.39,0-156.79c0-3.37-.65-4-4-4H333.94c-4.61,0-4.81.19-4.81,4.73Q329.12,222.11,329.12,260.84Zm23.36-99.53c14.54.29,25.46-10.35,25.74-25.06.3-15.94-9.46-26.32-25.11-26.7a25.34,25.34,0,0,0-26.26,24C326.12,150.64,337.87,161.67,352.48,161.31Z" transform="translate(-2 -2.49)"/><path class="b8db2238-8bc5-444c-9b48-076391edcc03" d="M203.31,292.14c-11.92,0-23.85.06-35.78-.06-2,0-2.62.69-3.18,2.42-4.77,15-9.65,30-14.49,45-1.16,3.57-1.79,4-5.55,4h-36c-4.09,0-4.75-.9-3.4-4.81q13.39-38.64,26.82-77.26Q151.06,205.71,170.45,150a62.08,62.08,0,0,0,3.76-20.95c0-2.28,1-3,3.12-3q25.54.06,51.09,0c2.21,0,3.28.83,4.05,3q37,104.7,74.14,209.34c.2.59.42,1.18.58,1.79.66,2.52.06,3.35-2.56,3.36-14.05,0-28.09,0-42.14,0-2.48,0-3.42-1.34-4.11-3.37-5.22-15.27-10.51-30.52-15.7-45.8-.56-1.66-1.28-2.28-3.11-2.27C227.49,292.19,215.4,292.14,203.31,292.14ZM203,163.86c-7.29,29.59-17.13,57.67-25.54,86.27h52C220.46,221.53,211,193.25,203,163.86Z" transform="translate(-2 -2.49)"/><path class="b8db2238-8bc5-444c-9b48-076391edcc03" d="M329.12,260.84q0-38.73,0-77.46c0-4.54.2-4.73,4.81-4.73h37.43c3.32,0,4,.64,4,4q0,78.39,0,156.79c0,3.71-.63,4.29-4.45,4.29H334.17c-4.53,0-5-.51-5-5Q329.12,299.81,329.12,260.84Z" transform="translate(-2 -2.49)"/><path class="b8db2238-8bc5-444c-9b48-076391edcc03" d="M352.48,161.31c-14.61.36-26.36-10.67-25.63-27.73a25.34,25.34,0,0,1,26.26-24c15.65.38,25.41,10.76,25.11,26.7C377.94,151,367,161.6,352.48,161.31Z" transform="translate(-2 -2.49)"/><path class="a3342c2d-3094-4a15-94e6-5466cec5a00a" d="M203,163.86c8,29.39,17.47,57.67,26.47,86.27h-52C185.86,221.53,195.7,193.45,203,163.86Z" transform="translate(-2 -2.49)"/></svg>