<svg id="a9433ff5-00d9-4a5d-8e87-80f5826a425f" data-name="Layer 1" xmlns="http://www.w3.org/2000/svg" viewBox="0 0 496.47 484.05"><defs><style>.b62298f1-c646-4e6d-8889-6e0a99e898de{fill:#470137;}.a3d9b38a-5182-4bc0-9bc7-e9c85f799298{fill:#fd60f4;}</style></defs><path class="b62298f1-c646-4e6d-8889-6e0a99e898de" d="M498,79.78V408.27c-.87.29-.74,1.06-.83,1.72a87.78,87.78,0,0,1-75.44,75.25c-.61.08-1.28,0-1.51.81H79.31c-.23-.77-.9-.73-1.5-.81A87.73,87.73,0,0,1,2.35,409.78c-.08-.61,0-1.28-.82-1.51V79.78c.78-.23.74-.9.82-1.51A85.21,85.21,0,0,1,24.22,31,86.11,86.11,0,0,1,77.81,2.81c.6-.08,1.27,0,1.5-.81H420.22c.28.87,1,.74,1.71.83a85.37,85.37,0,0,1,47.25,22,86.09,86.09,0,0,1,28,53.45C497.27,78.88,497.22,79.55,498,79.78ZM424.57,214.85q0-51.72,0-103.43c0-3-.26-3.28-3.3-3.28H382c-3.29,0-3.53.24-3.53,3.53,0,20.62,0,41.23.06,61.85,0,2-.64,2.33-2.43,2.16a111.13,111.13,0,0,0-39,3c-29.37,7.77-50,25.57-60.92,54.12-6,15.68-6.29,32-3.7,48.3,5,31.48,23,52,53.26,61.66,13.92,4.45,28.22,5.29,42.72,4.35,18.7-1.22,36.82-4.89,54.18-12,2.77-1.14,3.27-1.89,3.07-4.86-.73-10.52-1.2-21.05-1.17-31.61C424.61,270.7,424.57,242.77,424.57,214.85Zm-252.81-7c-.47-.9-.79-1.49-1.09-2.1-5.12-10.3-10.64-20.38-16.39-30.34-8.55-14.78-16.93-29.66-23.85-45.29a6.06,6.06,0,0,0-6.22-4c-15.24,0-30.48,0-45.71,0-1,0-2.19-.17-2.82.86s.28,2,.78,2.79Q107,181.46,137.53,233.1a3.35,3.35,0,0,1,0,4Q106.4,288,75.41,338.9A18.37,18.37,0,0,0,74.16,341c-.77,1.77-.25,2.52,1.65,2.52h42.81c1.17,0,2.34-.08,3.52-.1a3.9,3.9,0,0,0,3.59-2.3q21.12-38.36,41.2-77.26c.31-.6.46-1.31,1.09-1.71.68.24.81.91,1.1,1.43,13.82,24.76,27.61,49.55,40.14,75,1.56,3.16,3.68,4.47,7.1,4.46,15.59,0,31.17,0,46.75,0,1.32,0,3.14.64,3.86-.52.88-1.41-.52-2.82-1.29-4.09q-32.09-52.67-64.21-105.32a2.4,2.4,0,0,1-.16-2.93q30.58-50.32,61.07-100.69c.47-.76,1.16-1.45.52-2.42s-1.48-.82-2.4-.82c-13.58,0-27.16.18-40.74-.09-3.84-.08-5.75,1-7.56,4.5-9.85,19-20.09,37.8-30.11,56.72C178.58,194.08,175.31,200.83,171.76,207.86Z" transform="translate(-1.53 -2)"/><path class="a3d9b38a-5182-4bc0-9bc7-e9c85f799298" d="M424.57,214.85c0,27.92,0,55.85,0,83.77,0,10.56.44,21.09,1.17,31.61.2,3-.3,3.72-3.07,4.86-17.36,7.15-35.48,10.82-54.18,12-14.5.94-28.8.1-42.72-4.35-30.3-9.69-48.26-30.18-53.26-61.66-2.59-16.34-2.29-32.62,3.7-48.3,10.9-28.55,31.55-46.35,60.92-54.12a111.13,111.13,0,0,1,39-3c1.79.17,2.43-.12,2.43-2.16-.09-20.62-.06-41.23-.06-61.85,0-3.29.24-3.53,3.53-3.53h39.3c3,0,3.3.25,3.3,3.28Q424.58,163.14,424.57,214.85Zm-46.14,45.77c0-14.48,0-29,.06-43.44,0-1.82-.62-2.3-2.22-2.59a53.27,53.27,0,0,0-24.57.95c-13.55,4-24.26,11.73-29.85,25-4.81,11.41-4.66,23.41-1.88,35.34,2.29,9.83,6.85,18.39,15.42,24.16,12.89,8.67,27.29,8.3,41.86,6.43,1.42-.18,1.19-1.24,1.19-2.19Q378.43,282.43,378.43,260.62Z" transform="translate(-1.53 -2)"/><path class="a3d9b38a-5182-4bc0-9bc7-e9c85f799298" d="M171.76,207.86c3.55-7,6.82-13.78,10.33-20.4,10-18.92,20.26-37.72,30.11-56.72,1.81-3.49,3.72-4.58,7.56-4.5,13.58.27,27.16.11,40.74.09.92,0,1.82-.07,2.4.82s0,1.66-.52,2.42q-30.52,50.35-61.07,100.69a2.4,2.4,0,0,0,.16,2.93q32.13,52.65,64.21,105.32c.77,1.27,2.17,2.68,1.29,4.09-.72,1.16-2.54.52-3.86.52-15.58,0-31.16-.07-46.75,0-3.42,0-5.54-1.3-7.1-4.46-12.53-25.46-26.32-50.25-40.14-75-.29-.52-.42-1.19-1.1-1.43-.63.4-.78,1.11-1.09,1.71q-20,38.94-41.2,77.26a3.9,3.9,0,0,1-3.59,2.3c-1.18,0-2.35.1-3.52.1H75.81c-1.9,0-2.42-.75-1.65-2.52a18.37,18.37,0,0,1,1.25-2.14q31-50.89,62.1-101.76a3.35,3.35,0,0,0,0-4q-30.59-51.63-61.07-103.33c-.5-.84-1.47-1.68-.78-2.79s1.79-.86,2.82-.86c15.23,0,30.47,0,45.71,0a6.06,6.06,0,0,1,6.22,4c6.92,15.63,15.3,30.51,23.85,45.29,5.75,10,11.27,20,16.39,30.34C171,206.37,171.29,207,171.76,207.86Z" transform="translate(-1.53 -2)"/><path class="b62298f1-c646-4e6d-8889-6e0a99e898de" d="M378.43,260.62q0,21.83,0,43.64c0,.95.23,2-1.19,2.19-14.57,1.87-29,2.24-41.86-6.43-8.57-5.77-13.13-14.33-15.42-24.16-2.78-11.93-2.93-23.93,1.88-35.34,5.59-13.25,16.3-21,29.85-25a53.27,53.27,0,0,1,24.57-.95c1.6.29,2.23.77,2.22,2.59C378.39,231.66,378.43,246.14,378.43,260.62Z" transform="translate(-1.53 -2)"/></svg>