<svg id="ee0a1989-187d-406a-8a04-aa42bdec5fa7" data-name="Layer 4" xmlns="http://www.w3.org/2000/svg" viewBox="0 0 495.25 483"><defs><style>.ba3a3b56-9d07-4097-b751-fe141539dd54{fill:#49021f;}.a5867c5e-7425-463d-9b90-91fa0621ad05{fill:#fd3365;}</style></defs><path class="ba3a3b56-9d07-4097-b751-fe141539dd54" d="M3.13,409.19V79.81c.91-.5.85-1.42,1-2.26C10.49,38.66,39.51,9.88,78.35,3.92c.78-.11,1.59-.12,2.06-.92H422c1.51,1.62,3.63,1.24,5.49,1.59,36,6.87,63.8,35.84,69.83,72.73.15.9,0,1.93,1,2.49V409.19c-.92.49-.82,1.43-1,2.26-.7,3.37-1.16,6.83-2.19,10.11q-16.54,53-71.13,63.42c-.89.17-1.93,0-2.49,1H79.94c-.48-.95-1.42-.82-2.25-1-3.3-.69-6.68-1.14-9.89-2.13q-53.19-16.45-63.65-71.2C4,410.78,4.13,409.75,3.13,409.19ZM368.29,217.62h-.08V112.56c0-3.4-.23-3.62-3.59-3.62H326c-3.72,0-3.84.12-3.84,3.86q0,30.39,0,60.78c0,2.9,0,2.89-3,2.64a112.1,112.1,0,0,0-36.25,2.6c-30.73,7.54-52.21,25.79-63.18,55.71-5.86,16-5.71,32.5-3,49,3,18.36,11.51,33.76,26.05,45.55,14.3,11.59,31.14,16.9,49.14,18.16a166.08,166.08,0,0,0,74.23-11.83,4.5,4.5,0,0,0,3.2-5c-.34-6.35-1.07-12.67-1.07-19Q368.31,264.51,368.29,217.62ZM137,235.55q0,52.17,0,104.34c0,4,.54,4.53,4.45,4.53h36.74c4.35,0,4.88-.54,4.88-4.89q0-35,0-70,0-69.12,0-138.24c0-4.14-.6-4.73-4.76-4.73q-18.26,0-36.51,0c-4.41,0-4.8.4-4.8,4.84Q137,183.51,137,235.55Z" transform="translate(-3.13 -3)"/><path class="a5867c5e-7425-463d-9b90-91fa0621ad05" d="M368.29,217.62q0,46.89,0,93.76c0,6.37.73,12.69,1.07,19a4.5,4.5,0,0,1-3.2,5,166.08,166.08,0,0,1-74.23,11.83c-18-1.26-34.84-6.57-49.14-18.16-14.54-11.79-23-27.19-26.05-45.55-2.72-16.54-2.87-33.06,3-49,11-29.92,32.45-48.17,63.18-55.71a112.1,112.1,0,0,1,36.25-2.6c3,.25,3,.26,3-2.64q0-30.39,0-60.78c0-3.74.12-3.86,3.84-3.86h38.63c3.36,0,3.59.22,3.59,3.62V217.62ZM322.14,261c0-14.36,0-28.73.05-43.09,0-1.91-.61-2.56-2.38-2.87-9.31-1.6-18.51-1.26-27.4,2-12.41,4.5-22.2,12.23-27.05,24.82-4.42,11.47-4.28,23.37-1.33,35.2,2.55,10.26,7.64,18.94,17,24.49,12.38,7.36,25.89,7,39.54,5.37,1.62-.19,1.62-1.31,1.62-2.56Q322.13,282.69,322.14,261Z" transform="translate(-3.13 -3)"/><path class="a5867c5e-7425-463d-9b90-91fa0621ad05" d="M137,235.55q0-52,0-104.09c0-4.44.39-4.84,4.8-4.84q18.26,0,36.51,0c4.16,0,4.76.59,4.76,4.73q0,69.12,0,138.24,0,35,0,70c0,4.35-.53,4.88-4.88,4.89H141.47c-3.91,0-4.45-.55-4.45-4.53Q137,287.72,137,235.55Z" transform="translate(-3.13 -3)"/><path class="ba3a3b56-9d07-4097-b751-fe141539dd54" d="M322.14,261q0,21.66,0,43.33c0,1.25,0,2.37-1.62,2.56-13.65,1.63-27.16,2-39.54-5.37-9.33-5.55-14.42-14.23-17-24.49-2.95-11.83-3.09-23.73,1.33-35.2,4.85-12.59,14.64-20.32,27.05-24.82,8.89-3.23,18.09-3.57,27.4-2,1.77.31,2.4,1,2.38,2.87C322.1,232.29,322.14,246.66,322.14,261Z" transform="translate(-3.13 -3)"/></svg>