<svg id="b8dae72c-943d-4844-bfc6-ac29f57d95e1" data-name="Layer 1" xmlns="http://www.w3.org/2000/svg" viewBox="0 0 409.85 283.91"><defs><style>.f0ab0515-9e59-43f3-b26c-2c7d98622095{fill:#feffff;}.f10efcf4-80ac-4230-9995-c8a4d22f76ae{fill:#808081;}.eee7144c-62a1-45ab-a3f9-2cc9fb85c458{fill:#e84a25;}.a6856873-14ed-487e-97e2-4fef6a24efc7{fill:#858585;}.a4aa8824-e103-4134-b705-6b17cb9fba17{fill:#16a9d9;}</style></defs><rect class="f0ab0515-9e59-43f3-b26c-2c7d98622095" x="35.04" y="7.91" width="344.49" height="226.16"/><path class="f10efcf4-80ac-4230-9995-c8a4d22f76ae" d="M397.47,93.29A19.47,19.47,0,0,0,378,73.82H44.15A19.47,19.47,0,0,0,24.69,93.29V296.17a19.47,19.47,0,0,0,19.46,19.47H378a19.47,19.47,0,0,0,19.47-19.47ZM377.82,282.14a19.47,19.47,0,0,1-19.46,19.47h-295a19.47,19.47,0,0,1-19.47-19.47V108.72A19.47,19.47,0,0,1,63.33,89.26h295a19.46,19.46,0,0,1,19.46,19.46Z" transform="translate(-2.75 -73.82)"/><path class="f10efcf4-80ac-4230-9995-c8a4d22f76ae" d="M412.23,322.19H3.11c-2.84,0,11.5,35.54,27.83,35.54H384.4C400.73,357.73,415.07,322.19,412.23,322.19Z" transform="translate(-2.75 -73.82)"/><rect class="f0ab0515-9e59-43f3-b26c-2c7d98622095" x="171.09" y="259.7" width="74.59" height="12.35" rx="3.62"/><path class="eee7144c-62a1-45ab-a3f9-2cc9fb85c458" d="M287.63,125.26h-4.72a24.78,24.78,0,0,0-3.08-7.36v0l3.34-3.34a1.91,1.91,0,0,0,0-2.69l-5.8-5.81a1.91,1.91,0,0,0-2.69,0l-3.3,3.34a25.28,25.28,0,0,0-7.33-3v-4.75a2,2,0,0,0-2-1.92h-8.21a1.83,1.83,0,0,0-1.8,1.92v4.72a25,25,0,0,0-7.4,3.09l0,0-3.35-3.34a1.91,1.91,0,0,0-2.69,0l-5.81,5.81a1.9,1.9,0,0,0,0,2.69l3.33,3.32a25.74,25.74,0,0,0-3,7.37h-4.75a1.87,1.87,0,0,0-1.84,1.92v8.21a1.82,1.82,0,0,0,1.84,1.86h4.72a25.13,25.13,0,0,0,3.09,7.37l0,0L232.8,148a1.91,1.91,0,0,0,0,2.69l5.81,5.81a1.91,1.91,0,0,0,2.69,0l3.37-3.34a25.83,25.83,0,0,0,7.4,3v4.74a1.86,1.86,0,0,0,1.84,1.91h8.21a1.94,1.94,0,0,0,1.94-1.91v-4.72a24.61,24.61,0,0,0,7.33-3.08h0l3.34,3.34a1.9,1.9,0,0,0,2.68,0l5.8-5.8a1.89,1.89,0,0,0,0-2.69l-3.34-3.34a25.66,25.66,0,0,0,3-7.37h4.74a2,2,0,0,0,2-1.9v-8.21A2,2,0,0,0,287.63,125.26Zm-34.4,16.87-.34-.16c-.34-.16-.68-.35-1-.54a5.66,5.66,0,0,1-.48-.31l-.47-.33-.22-.17a12.75,12.75,0,0,1-1.22-1.1,12.52,12.52,0,0,1-1.05-1.26c-.13-.18-.26-.36-.37-.54a12.8,12.8,0,0,1-.94-1.75,11.82,11.82,0,0,1,2.93-13.4,6.75,6.75,0,0,1,.65-.55l.22-.18.47-.33a11.36,11.36,0,0,1,1.48-.85l.52-.24a12,12,0,0,1,4.61-.93,11.77,11.77,0,0,1,5.38,1.3l.5.27c.25.14.49.29.73.45l.46.33.22.18a4.94,4.94,0,0,1,.44.36c.22.18.42.38.62.58s.27.27.4.41c.31.35.61.72.89,1.1l.31.47c.11.16.21.33.3.49s.28.5.4.76a11.74,11.74,0,0,1,1.17,5.13,11.47,11.47,0,0,1-.38,3c0,.19-.1.38-.15.56s-.19.55-.29.82-.15.36-.23.53-.1.23-.16.35-.23.45-.36.67a4.94,4.94,0,0,1-.3.49c-.08.13-.16.25-.25.37l-.23.33-.17.22c-.12.15-.24.3-.37.44l-.18.22-.4.41-.2.19c-.27.26-.56.51-.86.75l-.22.17-.46.33-.48.31-.25.14c-.17.1-.33.19-.5.27a11.84,11.84,0,0,1-9.8.45Z" transform="translate(-2.75 -73.82)"/><rect class="a6856873-14ed-487e-97e2-4fef6a24efc7" x="58.62" y="30.38" width="151.78" height="17.76"/><rect class="a6856873-14ed-487e-97e2-4fef6a24efc7" x="58.62" y="54.9" width="151.78" height="17.76"/><rect class="a6856873-14ed-487e-97e2-4fef6a24efc7" x="36.63" y="249.33" width="67.92" height="17.76" transform="translate(326.05 113.8) rotate(90)"/><rect class="a6856873-14ed-487e-97e2-4fef6a24efc7" x="63.36" y="249.33" width="67.92" height="17.76" transform="translate(352.78 87.07) rotate(90)"/><rect class="a6856873-14ed-487e-97e2-4fef6a24efc7" x="90.1" y="249.33" width="67.92" height="17.76" transform="translate(379.52 60.33) rotate(90)"/><rect class="a6856873-14ed-487e-97e2-4fef6a24efc7" x="116.83" y="249.33" width="67.92" height="17.76" transform="translate(406.25 33.6) rotate(90)"/><rect class="a6856873-14ed-487e-97e2-4fef6a24efc7" x="143.57" y="249.33" width="67.92" height="17.76" transform="translate(432.99 6.86) rotate(90)"/><rect class="a6856873-14ed-487e-97e2-4fef6a24efc7" x="170.31" y="249.33" width="67.92" height="17.76" transform="translate(459.73 -19.87) rotate(90)"/><rect class="a6856873-14ed-487e-97e2-4fef6a24efc7" x="301.69" y="99.7" width="63.11" height="63.11" transform="translate(461.76 -275.81) rotate(90)"/><rect class="a4aa8824-e103-4134-b705-6b17cb9fba17" x="58.96" y="79.1" width="70.07" height="64.83"/><rect class="a4aa8824-e103-4134-b705-6b17cb9fba17" x="140.33" y="79.1" width="70.07" height="64.83"/><rect class="a6856873-14ed-487e-97e2-4fef6a24efc7" x="223.77" y="106.74" width="138.29" height="12.05"/><rect class="a6856873-14ed-487e-97e2-4fef6a24efc7" x="223.77" y="126.42" width="138.29" height="12.05"/><rect class="a6856873-14ed-487e-97e2-4fef6a24efc7" x="223.77" y="146.11" width="138.29" height="12.05"/><rect class="a6856873-14ed-487e-97e2-4fef6a24efc7" x="223.77" y="167.2" width="138.29" height="51.15"/></svg>