<svg xmlns="http://www.w3.org/2000/svg" viewBox="0 0 105.03 105.03"><defs><style>.a{fill:#e8c518;}.b{fill:#fff;}.c{fill:#232323;}</style></defs><circle class="a" cx="56.99" cy="55.77" r="52.51" transform="translate(-22.44 25.29) rotate(-24.41)"/><path class="b" d="M97,30.48a1.16,1.16,0,0,1-1-.54A51.75,51.75,0,0,0,77.29,12.53a1.18,1.18,0,1,1,1.13-2.07A54.07,54.07,0,0,1,98,28.67a1.17,1.17,0,0,1-1,1.81Z" transform="translate(-4.48 -3.26)"/><path class="b" d="M102.72,42.59a1.19,1.19,0,0,1-1.12-.82,51.12,51.12,0,0,0-3.38-8,1.18,1.18,0,0,1,2.09-1.09A53.39,53.39,0,0,1,103.84,41a1.17,1.17,0,0,1-.75,1.49A1.19,1.19,0,0,1,102.72,42.59Z" transform="translate(-4.48 -3.26)"/><circle class="b" cx="70.21" cy="6.84" r="1.18"/><circle class="c" cx="24.35" cy="50.35" r="6.16"/><path class="c" d="M90.17,53.6A6.16,6.16,0,1,1,84,47.44,6.16,6.16,0,0,1,90.17,53.6Z" transform="translate(-4.48 -3.26)"/><circle class="c" cx="56.99" cy="62.13" r="14.02" transform="translate(-17.98 105.14) rotate(-80.74)"/></svg>