<svg id="fb4c098c-c270-4b7a-8ea0-325145359a29" data-name="Layer 10" xmlns="http://www.w3.org/2000/svg" viewBox="0 0 406.92 478"><defs><style>.a22a9c2a-97a2-4513-81c5-fd3ad87fd75c{fill:#68b181;}.b75308dd-7497-4f26-8e68-1043827fa8ad{fill:#394a5d;}.e1c3cd6a-ec6a-4e13-8989-aa5b5dce66f5{fill:#fefefe;}</style></defs><path class="a22a9c2a-97a2-4513-81c5-fd3ad87fd75c" d="M379,6.24H461.1c-7.5,13-14.37,24.89-21.28,36.78q-20.13,34.71-40.29,69.39L322.07,245.88q-26.42,45.5-52.81,91c-3.41,5.88-6.87,11.73-10.13,17.7-1.71,3.13-2.65,2.67-4.26-.13-9.26-16.09-18.67-32.11-28-48.16q-29.64-51-59.24-102.05Q137,151.39,106.52,98.48q-24.33-42-48.82-83.89c-.77-1.33-1.42-2.73-2.28-4-2.48-3.69-1.07-4.45,2.8-4.44,25.62.1,51.25,0,76.87,0-.24,1.48.58,2.55,1.27,3.75,7.42,12.86,14.73,25.77,22.17,38.61q48,82.77,96,165.53c1.95,3.37,3,3.49,5,0,8.54-14.95,17.26-29.81,25.91-44.71Q327.3,97.27,369.08,25.11C372.62,19,376.94,13.19,379,6.24Z" transform="translate(-54.18 -6)"/><path class="b75308dd-7497-4f26-8e68-1043827fa8ad" d="M379,6.24c-2,7-6.34,12.73-9.88,18.87q-41.65,72.24-83.66,144.28c-8.65,14.9-17.37,29.76-25.91,44.71-2,3.46-3.05,3.34-5,0q-47.92-82.8-96-165.53c-7.44-12.84-14.75-25.75-22.17-38.61-.69-1.2-1.51-2.27-1.27-3.75,23.75,0,47.49,0,71.24-.18,2.73,0,3.86,1.21,5,3.26C225.67,34,240.09,58.7,254.31,83.5c2.19,3.8,3.1,4,5.38,0,14.12-24.67,28.46-49.21,42.74-73.78C303.5,7.87,304.22,6,307.2,6,331.12,6.2,355,6.18,379,6.24Z" transform="translate(-54.18 -6)"/><path class="b75308dd-7497-4f26-8e68-1043827fa8ad" d="M152.8,449c6-16.7,11.81-32.11,17-47.72,1.69-5.09,4.07-7.39,9.34-6.34,1.59.32,4.35-1,4,2.2-.22,2,2,5.42-2.66,5.65-2.12.1-2,2.45-2.58,4-6.12,16.63-12.38,33.21-18.15,50-1.38,4-3.66,4.05-6.89,4.08s-5.5-.05-6.87-4c-5.66-16.42-11.77-32.69-17.79-49-.82-2.2-.84-4.81-4.41-5.46-2.21-.4-.84-3.5-1-5.38-.22-2.06,1.32-1.9,2.72-2,7.63-.69,7.79-.63,10.29,6.39q7.29,20.46,14.53,40.94C150.93,444.17,151.67,446,152.8,449Z" transform="translate(-54.18 -6)"/><path class="b75308dd-7497-4f26-8e68-1043827fa8ad" d="M273.91,442.3c-3.92,0-7.85.16-11.77,0s-3.66,1.82-2.46,4.38c2.11,4.53,7.69,7,14,6a23.54,23.54,0,0,0,5.78-1.93c3.71-1.69,6.24-.51,7.59,3.33.64,1.82-.58,2.12-1.5,2.6-6.92,3.69-14.23,5.8-22.13,4.34-9-1.66-14.61-10.35-14.39-21.95.31-16.56,11.74-25.77,27.42-22.09,8.92,2.09,16.18,15.4,13,23.74-.65,1.73-1.92,1.64-3.29,1.64Zm-4.39-6.94c2.55,0,5.12-.21,7.65,0,3.74.38,3.85-1.53,3.05-4.25-1-3.44-3.18-5.55-6.79-6-5-.63-9.51.2-12.66,4.62-1.07,1.5-2.61,3.23-1.62,5,.73,1.32,2.79.48,4.25.55C265.44,435.44,267.48,435.36,269.52,435.36Z" transform="translate(-54.18 -6)"/><path class="b75308dd-7497-4f26-8e68-1043827fa8ad" d="M224.54,455.11c-3.92,3.83-8,5.95-13.1,6-10.09.14-16.45-5.81-16.71-15.93-.14-5.63,0-11.27-.06-16.9,0-1.21.69-3.12-1.34-3.29-5.23-.43-2.82-4.36-2.74-6.59.09-2.76,2.94-1.41,4.51-1.44,8.73-.2,8.74-.12,8.74,8.75,0,6.15-.08,12.3,0,18.45.09,5.55,3.57,8.51,9.83,8.6,6.47.08,10.88-3,11.09-8.1.23-5.62.05-11.26,0-16.9,0-1.17.18-2.55-1.48-2.79-4.66-.67-2.44-4.28-2.41-6.45,0-3,2.91-1.52,4.46-1.56,8.84-.2,8.84-.12,8.84,8.74,0,7.34,0,14.68,0,22,0,1.5-.46,3.44,1.13,4.21,4.38,2.13,3,5.88,1.88,8.6-1,2.48-8.93,1-11-1.81A22.77,22.77,0,0,1,224.54,455.11Z" transform="translate(-54.18 -6)"/><path class="b75308dd-7497-4f26-8e68-1043827fa8ad" d="M369.33,461.42c-4.22-.21-8.12-.48-11.79-2.16-2.39-1.09-4.58-2.47-5.55-5-.91-2.35-1.83-5.07.23-7.12,1.63-1.63,7.58.37,8.81,2.59,2.45,4.41,12.28,5.59,15.42,1.67,2.31-2.87.76-5.33-2-6.68-3.8-1.88-7.87-3.22-11.79-4.88-7-2.94-10-7.06-9.19-12.44.86-5.8,5.61-9.71,12.74-10.62a25.7,25.7,0,0,1,12.6,1.39c2.25.85,4.46,2.09,5.37,4.46,1,2.58,2.66,6.4-.35,7.57-2.44.95-7,2.73-8.94-2.5-1.38-3.65-4.83-3.89-8.26-3.06a4.76,4.76,0,0,0-3.79,3.75c-.47,2.21.88,3.67,2.58,4.55,2.26,1.16,4.69,2,7.07,2.92s4.82,1.72,7.14,2.77c4.57,2.08,7.53,5.49,7.2,10.73-.34,5.52-3.51,9-8.74,10.78A33.86,33.86,0,0,1,369.33,461.42Z" transform="translate(-54.18 -6)"/><path class="b75308dd-7497-4f26-8e68-1043827fa8ad" d="M342.53,448.67c0,9,.07,18.06,0,27.09-.07,6.25-5.47,9.78-11.29,7.59-1.45-.55-2.42-1.44-2.15-3,.34-2-1.35-4.79,1.62-5.8,2.41-.82,2.43-2.48,2.43-4.4,0-14,0-27.94,0-41.91,0-1.24.55-3-1.44-3.3-4.62-.69-2.54-4.24-2.44-6.41.14-2.85,2.94-1.51,4.53-1.55,8.78-.2,8.78-.13,8.78,8.7Q342.54,437.17,342.53,448.67Z" transform="translate(-54.18 -6)"/><path class="e1c3cd6a-ec6a-4e13-8989-aa5b5dce66f5" d="M269.52,435.36c-2,0-4.08.08-6.12,0-1.46-.07-3.52.77-4.25-.55-1-1.79.55-3.52,1.62-5,3.15-4.42,7.66-5.25,12.66-4.62,3.61.46,5.79,2.57,6.79,6,.8,2.72.69,4.63-3.05,4.25C274.64,435.15,272.07,435.36,269.52,435.36Z" transform="translate(-54.18 -6)"/><circle class="b75308dd-7497-4f26-8e68-1043827fa8ad" cx="282.82" cy="394" r="6"/><circle class="b75308dd-7497-4f26-8e68-1043827fa8ad" cx="254.82" cy="449" r="6"/></svg>