<svg id="aba113e8-700a-4b0a-ae0f-89666101a80f" data-name="Layer 2" xmlns="http://www.w3.org/2000/svg" viewBox="0 0 496.36 483.95"><defs><style>.e623c3c4-85de-4c52-b7e0-9fee605cfb25{fill:#001e36;}.a96a8874-b242-4584-b87f-ceb084bfadcf{fill:#31a7fe;}</style></defs><path class="e623c3c4-85de-4c52-b7e0-9fee605cfb25" d="M498.36,79.76V408.19c-.67.3-.73.92-.82,1.55a87.89,87.89,0,0,1-75.19,75.38c-.68.09-1.4.06-1.75.83H79.76c-.4-.86-1.22-.74-2-.85A87.92,87.92,0,0,1,2.85,410.34c-.1-.68-.06-1.41-.85-1.74V79.35c1.4-1.1,1-2.78,1.21-4.19a86.88,86.88,0,0,1,30.73-53A86.26,86.26,0,0,1,77.61,2.85c.68-.1,1.41-.06,1.74-.85H421c.38.89,1.21.76,1.95.87,21.7,3.32,39.83,13.17,54.19,29.81A85.73,85.73,0,0,1,497.53,78C497.62,78.69,497.59,79.41,498.36,79.76ZM113.68,234.92V340.37c0,3.21.5,3.7,3.71,3.7h37.22c3.36,0,3.95-.6,3.95-4q0-31.43,0-62.86c0-1.82.39-2.51,2.37-2.44,7.3.25,14.6.52,21.91.34,13.63-.32,27.09-1.82,40-6.43,18.55-6.62,32.69-18.39,40.87-36.54,6-13.25,7.33-27.35,5.85-41.68-1.44-14-6.24-26.77-15.39-37.67s-20.7-17.76-34-22.17-26.78-5.51-40.55-5.55c-20.75-.06-41.48.9-62.22,1.18-3.43,0-3.7.3-3.7,3.83Zm178.48,82.45c0,5.79,0,11.59,0,17.38a4.54,4.54,0,0,0,3,4.68c1.77.76,3.54,1.54,5.35,2.19,14.39,5.15,29.31,6.82,44.49,6.74,10.67-.05,21.2-1.2,31.32-4.74,20.23-7.09,33.28-20.45,35.76-42.4,1.62-14.45-2.17-27.3-13-37.62-6.07-5.81-13.44-9.54-20.75-13.41-8.18-4.34-17.13-6.82-25.47-10.75-4.79-2.25-9.77-4.19-13.7-7.93-2.72-2.59-4.22-5.61-3.23-9.45s3.55-6.1,7.31-7.11a41.86,41.86,0,0,1,11.63-1.6c15.24.25,30,2.58,43.81,9.51,3.17,1.59,5.15.32,5.15-3.13q0-15.72,0-31.44c0-.48,0-1,0-1.44a4.17,4.17,0,0,0-3.06-4.16,72.7,72.7,0,0,0-8.84-2.83,150.84,150.84,0,0,0-47.47-2.75,65.42,65.42,0,0,0-31,11c-23.76,16.19-28.65,51.58-7.36,72.23,7.39,7.17,16.25,12,25.42,16.34,7.71,3.67,15.93,6.11,23.63,9.82,3.48,1.68,6.93,3.41,9.62,6.3,4.8,5.15,3.43,12.21-3,15.19a29.17,29.17,0,0,1-10.81,2.5,100.53,100.53,0,0,1-55.07-12.39c-2.91-1.61-3.71-1.14-3.72,2.29C292.15,306.07,292.16,311.72,292.16,317.37Z" transform="translate(-2 -2)"/><path class="a96a8874-b242-4584-b87f-ceb084bfadcf" d="M113.68,234.92V130.09c0-3.53.27-3.78,3.7-3.83,20.74-.28,41.47-1.24,62.22-1.18,13.77,0,27.37,1.18,40.55,5.55s24.9,11.36,34,22.17,13.95,23.67,15.39,37.67c1.48,14.33.13,28.43-5.85,41.68-8.18,18.15-22.32,29.92-40.87,36.54-12.91,4.61-26.37,6.11-40,6.43-7.31.18-14.61-.09-21.91-.34-2-.07-2.38.62-2.37,2.44q.08,31.42,0,62.86c0,3.39-.59,4-3.95,4H117.39c-3.21,0-3.71-.49-3.71-3.7Zm60.79-68.83c-4.75,0-9.5,0-14.25,0-1.16,0-1.48.48-1.47,1.61q0,33.28,0,66.56c0,1.18.41,1.45,1.52,1.55,5.78.53,11.57.26,17.35.31a80.53,80.53,0,0,0,21.22-2.87c13.91-3.67,25-12.84,26-29,.55-8.85-.64-17.18-6-24.5-5.16-7-12.55-10.25-20.68-12.28C190.31,165.54,182.39,165.72,174.47,166.09Z" transform="translate(-2 -2)"/><path class="a96a8874-b242-4584-b87f-ceb084bfadcf" d="M292.16,317.37c0-5.65,0-11.3,0-16.95,0-3.43.81-3.9,3.72-2.29A100.53,100.53,0,0,0,351,310.52a29.17,29.17,0,0,0,10.81-2.5c6.39-3,7.76-10,3-15.19-2.69-2.89-6.14-4.62-9.62-6.3-7.7-3.71-15.92-6.15-23.63-9.82-9.17-4.35-18-9.17-25.42-16.34-21.29-20.65-16.4-56,7.36-72.23a65.42,65.42,0,0,1,31-11,150.84,150.84,0,0,1,47.47,2.75,72.7,72.7,0,0,1,8.84,2.83,4.17,4.17,0,0,1,3.06,4.16c0,.48,0,1,0,1.44q0,15.72,0,31.44c0,3.45-2,4.72-5.15,3.13-13.8-6.93-28.57-9.26-43.81-9.51a41.86,41.86,0,0,0-11.63,1.6c-3.76,1-6.33,3.27-7.31,7.11s.51,6.86,3.23,9.45c3.93,3.74,8.91,5.68,13.7,7.93,8.34,3.93,17.29,6.41,25.47,10.75,7.31,3.87,14.68,7.6,20.75,13.41,10.8,10.32,14.59,23.17,13,37.62-2.48,21.95-15.53,35.31-35.76,42.4-10.12,3.54-20.65,4.69-31.32,4.74-15.18.08-30.1-1.59-44.49-6.74-1.81-.65-3.58-1.43-5.35-2.19a4.54,4.54,0,0,1-3-4.68C292.2,329,292.16,323.16,292.16,317.37Z" transform="translate(-2 -2)"/><path class="e623c3c4-85de-4c52-b7e0-9fee605cfb25" d="M174.47,166.09c7.92-.37,15.84-.55,23.63,1.39,8.13,2,15.52,5.3,20.68,12.28,5.4,7.32,6.59,15.65,6,24.5-1,16.14-12.08,25.31-26,29a80.53,80.53,0,0,1-21.22,2.87c-5.78-.05-11.57.22-17.35-.31-1.11-.1-1.52-.37-1.52-1.55q.06-33.28,0-66.56c0-1.13.31-1.61,1.47-1.61C165,166.11,169.72,166.09,174.47,166.09Z" transform="translate(-2 -2)"/></svg>