<svg id="b90d5b51-0125-4a34-b930-da00700f6226" data-name="Layer 5" xmlns="http://www.w3.org/2000/svg" viewBox="0 0 493.14 481.63"><defs><style>.fd90878e-366f-42d5-bdb0-5c8a6ba53590{fill:#001e36;}.fd795a64-c48c-47e5-afff-815ec170d4c0{fill:#31a7fe;}</style></defs><path class="fd90878e-366f-42d5-bdb0-5c8a6ba53590" d="M497,80.63V407.74c-.88.38-.76,1.21-.87,1.93a85.38,85.38,0,0,1-21.66,46.17c-15.21,16.66-34.14,26.19-56.68,28.35-.68.07-1.39,0-1.75.81H84.82c-.41-.85-1.22-.76-2-.81a72,72,0,0,1-10.33-1.58,86.29,86.29,0,0,1-47.6-28.48A85.45,85.45,0,0,1,4.69,409.08c-.09-.68-.07-1.4-.83-1.75V81c1.42-1.26.92-3.06,1.2-4.6q5.93-33,32.14-54A84.61,84.61,0,0,1,83.07,4.18c.68-.07,1.4,0,1.75-.81H416c1.41,1.52,3.36.88,5,1.1C444,7.64,462.75,18.2,477.41,36A85,85,0,0,1,496.15,78.9C496.25,79.58,496.21,80.3,497,80.63ZM129.24,235V338.59c0,4.47.58,5,5.11,5H262.56a3.23,3.23,0,0,0,3.64-3.06c2-11.88,4-23.75,5.95-35.63.38-2.31-.22-2.95-2.6-3.07-.68,0-1.37,0-2.06,0h-90c-2.67,0-2.67,0-2.67-2.6V130.35c0-3-.3-3.3-3.28-3.3H133.33c-3.45,0-4.09.64-4.09,4Zm209.69-34.2c-.06-1.31-.09-2-.13-2.78-.33-5.26-.66-10.49-2.83-15.44a5.19,5.19,0,0,0-5.41-3.45c-11.5.08-23,0-34.5,0-2.18,0-2.88.86-2.67,3.07.37,3.95.84,7.9,1,11.86.62,16.21.73,32.44.71,48.67q-.06,48.46,0,96.95c0,3.46.6,4.06,4.08,4.06q19.21,0,38.41,0c2.91,0,3.36-.47,3.42-3.33,0-.75,0-1.5,0-2.26,0-32,.18-64.08-.17-96.12-.06-5.57,2-8.68,6.41-11,.3-.16.59-.34.89-.51,7.74-4.32,16.14-6.66,24.82-8.11a81.58,81.58,0,0,1,17.6-1c3.13.16,3.73-.49,3.73-3.61q0-19.31,0-38.62c0-2.51-.79-3.26-3.3-3.34-13.64-.4-25.84,3.78-36.94,11.52A87.28,87.28,0,0,0,338.93,200.84Z" transform="translate(-3.86 -3.37)"/><path class="fd795a64-c48c-47e5-afff-815ec170d4c0" d="M129.24,235v-104c0-3.38.64-4,4.09-4h38.22c3,0,3.28.3,3.28,3.3v168.9c0,2.6,0,2.6,2.67,2.6h90c.69,0,1.38,0,2.06,0,2.38.12,3,.76,2.6,3.07-2,11.88-4,23.75-5.95,35.63a3.23,3.23,0,0,1-3.64,3.06H134.35c-4.53,0-5.11-.57-5.11-5Z" transform="translate(-3.86 -3.37)"/><path class="fd795a64-c48c-47e5-afff-815ec170d4c0" d="M338.93,200.84A87.28,87.28,0,0,1,354,187.43c11.1-7.74,23.3-11.92,36.94-11.52,2.51.08,3.29.83,3.3,3.34q0,19.32,0,38.62c0,3.12-.6,3.77-3.73,3.61a81.58,81.58,0,0,0-17.6,1c-8.68,1.45-17.08,3.79-24.82,8.11-.3.17-.59.35-.89.51-4.42,2.36-6.47,5.47-6.41,11,.35,32,.17,64.08.17,96.12,0,.76,0,1.51,0,2.26-.06,2.86-.51,3.33-3.42,3.33q-19.2,0-38.41,0c-3.48,0-4.08-.6-4.08-4.06q0-48.48,0-96.95c0-16.23-.09-32.46-.71-48.67-.15-4-.62-7.91-1-11.86-.21-2.21.49-3.07,2.67-3.07,11.5,0,23,.05,34.5,0a5.19,5.19,0,0,1,5.41,3.45c2.17,4.95,2.5,10.18,2.83,15.44C338.84,198.8,338.87,199.53,338.93,200.84Z" transform="translate(-3.86 -3.37)"/></svg>