<svg id="a2910d05-9fa6-4b53-92a5-76c9ff973b42" data-name="Layer 9" xmlns="http://www.w3.org/2000/svg" viewBox="0 0 494 299.97"><defs><style>.badc2d62-cc23-424d-9d11-c559f899d5e8{fill:#f58e14;}.a8bf7051-91b2-434d-9b26-64df82a16bb3{fill:#fdfdfc;}.e7fbaa09-0321-4d3a-bf2c-8a771f47b998{fill:#171614;}</style></defs><path class="badc2d62-cc23-424d-9d11-c559f899d5e8" d="M395.72,392H89c-1.52-1.77-3.78-1.28-5.67-1.62C44,383.23,14.2,355,5.23,316.36c-.65-2.83-.24-6-2.23-8.45V284c1.68-.81,1.13-2.52,1.34-3.78C11.88,235.64,50,203,93.14,200.68c3.1-.17,4.31-1.47,5.27-4.22C118,140.37,157.18,106.67,215.24,94.58c4.72-1,9.69-.57,14.22-2.58h22c.7,1.28,2,.81,3,.89a140.33,140.33,0,0,1,29.46,5.43c38.43,11.53,67.72,34.74,88.05,69.28,1.24,2.12,2.18,3.68,5.36,3.41,54.68-4.63,105.32,32.89,117,86.4.9,4.09.73,8.42,2.68,12.28v23.89c-1.38.57-.94,1.87-1.1,2.88a111.48,111.48,0,0,1-88.81,93.19C403.3,390.4,399.27,390,395.72,392Zm-153-15.28v.11q69.51,0,139,0a110.11,110.11,0,0,0,26.05-2.63c48.83-11.77,79.7-56.94,73.08-106.84C474.18,216.89,425,179.16,374.71,186c-8.44,1.14-9.45.64-13.27-6.59-36-68.13-121.42-92.76-188-53.95-31.87,18.57-52.65,45.93-62.57,81.49-1.88,6.73-3.78,8.25-10.7,8.32A89.89,89.89,0,0,0,79.4,218a80.68,80.68,0,0,0-61,86.55c4.15,39.73,38.07,71.55,78.14,72C145.28,377.1,194,376.69,242.73,376.69Z" transform="translate(-3 -92)"/><path class="a8bf7051-91b2-434d-9b26-64df82a16bb3" d="M242.73,376.69c-48.72,0-97.45.41-146.17-.13-40.07-.45-74-32.27-78.14-72A80.68,80.68,0,0,1,79.4,218a89.89,89.89,0,0,1,20.76-2.77c6.92-.07,8.82-1.59,10.7-8.32,9.92-35.56,30.7-62.92,62.57-81.49,66.59-38.81,152-14.18,188,53.95,3.82,7.23,4.83,7.73,13.27,6.59,50.25-6.81,99.47,30.92,106.16,81.38,6.62,49.9-24.25,95.07-73.08,106.84a110.11,110.11,0,0,1-26.05,2.63q-69.49,0-139,0ZM254.6,258.14c-2.35-3.32-4.81-6.4-9.31-6.57-4.3-.17-7.43,1.94-10.42,5.7.21-6.91-4.39-4.58-7.4-4.76-4.17-.25-2.71,3.14-2.73,5.15-.12,10.82.14,21.64-.15,32.45-.13,4.58,2.66,3.78,5.25,3.72s5.56,1.1,5.35-3.6c-.3-7-.15-14,0-21,.07-3.52.17-7.74,4.93-7.85,5-.11,4.77,4.19,4.81,7.68.07,7,.28,14-.08,21-.24,4.61,2.64,3.8,5.24,3.77s5.47,1,5.27-3.67c-.33-7.46-.15-14.95,0-22.42.1-3.46,1.52-6.44,5.61-6.3s4.11,3.38,4.13,6.3c.06,7.48.22,15-.07,22.43-.18,4.62,2.79,3.62,5.35,3.67s5.35.73,5.19-3.79c-.33-8.74-.05-17.49-.09-26.24,0-6.74-2.33-10.22-7.54-11.76S258.32,252.53,254.6,258.14Zm60.11,13.17c0-3.18.14-6.37,0-9.54a9.28,9.28,0,0,0-5.47-8.37c-7.14-3.31-14.19-3.05-20.88,1.29a11,11,0,0,0-4.64,7c-.24,1-.45,1.79.55,2.52,2.17,1.6,8,.61,9.38-1.76a5.93,5.93,0,0,1,6-3.08c3.31.26,4.35,2.42,4.64,5.55.33,3.44-2,2.83-3.9,3.17a62.4,62.4,0,0,0-8.87,1.75c-5.42,1.8-8.83,5.58-9.33,11.46-.39,4.7.59,9,5.06,11.51,5.21,2.88,10.69,2.54,15.24-1.07,2.9-2.3,4.27-2.21,6.11.75.81,1.31,2.34,2.64,3.87.85,1.81-2.11,6.76-3.39,5-6.3C314.33,281.84,315.19,276.61,314.71,271.31Zm-98.76.2c0-3,.11-6.05,0-9.06-.2-4.3-2.16-7.68-6.19-9.39a21.19,21.19,0,0,0-19.26.91,12.26,12.26,0,0,0-5.67,7.37c-.33,1-.69,2.09.62,2.92,2.4,1.51,7.91.53,9.38-1.88a5.93,5.93,0,0,1,6.93-2.85c3,.69,3.6,3.11,3.79,5.85.23,3.34-2.32,2.25-3.9,2.63-3.22.78-6.63.67-9.75,2-4.88,2.13-8.08,5.54-8.46,11.08-.31,4.65.29,9.06,4.78,11.61A13.19,13.19,0,0,0,203,292.1c2.9-2.06,4.73-2.91,6.87.57.92,1.49,2.59,2.25,3.88.49,1.62-2.22,6.84-3.12,4.7-6.46C215.29,281.7,216.42,276.61,216,271.51Zm189.58-13.24c1.23-7.31-3.19-5.64-6.43-5.84-4.43-.28-3.21,3-3.22,5.26-.08,11,.07,21.95-.08,32.93-.06,4.49,3.06,3.18,5.28,3.17s5.41,1.37,5.28-3.15c-.19-6.52,0-13.05-.06-19.57a15.08,15.08,0,0,1,1.1-6.52c.92-2,2.39-3.47,4.76-3.34s3.61,1.83,4,4.06a28.69,28.69,0,0,1,.45,4.72c0,6,.43,12.12-.1,18.12-.46,5.13,1.52,6.53,6.09,5.74,1.66-.28,4.37,1,4.32-2.15-.15-10.65,1-21.36-.67-31.92-1.07-6.7-8.08-9.94-14.39-7.4C409.34,253.39,408.16,255.69,405.53,258.27ZM390.19,273.5a25.77,25.77,0,0,0-2.76-12.9c-2.95-5.77-7.66-8.85-14.09-9s-11.47,2.77-14.3,8.57c-4.31,8.84-4.37,17.92.4,26.55,5.7,10.33,19.81,10.82,26.65,1.17A22.92,22.92,0,0,0,390.19,273.5Zm-51.86-12.71c-4.82,6.94-8.88,13.16-13.33,19.08-2.57,3.41-2.43,7.1-2.32,10.9.07,2.05,1.15,2.28,2.89,1.5a28.15,28.15,0,0,1,24,0c1.13.51,2.08.68,2.75-.72,1.57-3.29-.33-7.92-3.8-9.4s-7.26-1.43-11.19-2.3c4.35-6.23,8.31-12.18,12.57-17.89a8.61,8.61,0,0,0,1.44-8.52c-1-2.37-4-1-6.09-1.06-5.57-.18-11.15,0-16.72-.11-2.95-.07-4.66.25-4.64,4s1.23,4.8,4.7,4.52C331.46,260.6,334.34,260.79,338.33,260.79ZM94.71,273.06c-.36-3.93,2-9.9-.8-13.41s-9-3.3-13.64-4.8c-1.06-.34-2.15-.57-3.18-1-2.28-.91-3.17-.24-3.14,2.25C74,264.06,74,272,74,280c0,1.81.42,2.9,2.34,3.49,5.15,1.6,10.25,3.38,15.34,5.15,2.17.76,3.23.45,3.12-2.19C94.59,282.27,94.71,278.14,94.71,273.06Zm51.65,23.45c-6.31,1.87-12.19,3.69-18.12,5.32-2,.56-2.3,1.8-2.29,3.54q0,12.18,0,24.35c0,2.15.22,3.36,2.92,2.35,4.91-1.84,9.92-3.42,14.92-5,1.73-.55,2.63-1.35,2.61-3.34C146.31,314.83,146.36,305.93,146.36,296.51Zm-46.21-23.62c0,4.8.15,8.79,0,12.76-.17,3.36,1.08,3.72,3.93,2.64,4.31-1.63,8.71-3.06,13.13-4.35,2.5-.74,3.52-1.92,3.43-4.7-.23-6.52,0-13.05,0-19.57s0-6.57-6.47-4.64c-4.55,1.36-10.58,1.25-13.17,4.7S100.47,269,100.15,272.89Zm46.26,1.18h0c0-4-.13-7.94,0-11.9.11-2.36-.81-3.39-3-4-4.75-1.25-9.48-2.61-14.14-4.17-2.49-.83-3.44-.48-3.4,2.34.12,7.77.13,15.55,0,23.32,0,2.31.8,3.43,2.93,4.09,4.69,1.46,9.36,3,14,4.66,2.58.94,3.8.68,3.64-2.47C146.26,282,146.41,278,146.41,274.07Zm5.42-1.14c0,4.92.11,9,0,13.16-.11,2.76.9,3.28,3.36,2.4,4.77-1.71,9.57-3.35,14.41-4.84,2-.62,2.72-1.59,2.69-3.71-.11-7.77-.11-15.54,0-23.3,0-2.88-.73-3.84-3.51-2.55a20.83,20.83,0,0,1-2.72.82c-4.52,1.43-10.37,1.61-13.19,4.63C149.78,262.84,152.32,268.9,151.83,272.93ZM172,246.05c.09-1.78.21-3,.21-4.29,0-7.93,0-15.87.06-23.81,0-2.1-1.15-2.63-2.8-3.1-4.72-1.35-9.44-2.72-14.12-4.23-2.71-.87-3.65-.15-3.6,2.76.15,7.61.06,15.24.05,22.86,0,1.61-.07,3.14,2,3.8C159.8,242,165.76,244,172,246.05ZM120.56,317.4h0c0-4-.08-7.94,0-11.9.06-2-.44-3.2-2.58-3.77-4.9-1.3-9.76-2.78-14.59-4.32-2.63-.85-3.43.08-3.33,2.65.13,3-.09,6,.06,9,.26,5.66-2.38,12.83,1,16.56s10.61,4.23,16.07,6.32c2.44.93,3.44.67,3.32-2.21C120.43,325.65,120.56,321.52,120.56,317.4Zm103.3-86.46v-6.18c0-9,0-9.07-8.53-11.53-3.76-1.08-8.5-4.47-11.06-2.39s-.75,7.48-.68,11.42c.1,5.66-2.35,12.76,1,16.58s10.27,4.2,15.63,6.09c.3.11.61.18.9.31,2,.95,2.85.35,2.8-1.92C223.78,239.19,223.85,235.07,223.86,230.94Zm5.49,15.17c6.47-2.15,12.44-4.18,18.43-6.12,1.74-.56,1.95-1.8,1.95-3.33,0-7.94,0-15.87.05-23.8,0-2.5-.93-3-3.14-2.34-5,1.54-10,3.09-15,4.48a2.63,2.63,0,0,0-2.28,3C229.38,227.16,229.35,236.34,229.35,246.11ZM198,225h0c0-4-.13-7.93,0-11.89.12-2.7-.79-3.37-3.32-2.57-4.83,1.53-9.67,3-14.57,4.32-2.2.58-2.57,1.82-2.55,3.78.06,8.09.11,16.18,0,24.27,0,3,1.05,3,3.38,2.14,3.24-1.25,6.59-2.25,9.9-3.33,7.11-2.32,7.11-2.31,7.12-9.58Zm-6.78,97-.83.06c-1.25-4.41-2.58-8.79-3.7-13.23-.55-2.21-2.11-2.22-3.67-1.95-2.42.43-1.2,2.11-.86,3.34,1.76,6.43,3.53,12.86,5.4,19.25.45,1.54.51,3.47,3.15,3.36s2.24-2.17,2.8-3.67c1.37-3.69,1.58-7.79,3.78-12,1.34,4.62,2.43,8.43,3.54,12.24.47,1.64.55,3.48,3.11,3.38,2.31-.08,2.29-1.74,2.69-3.24,1.67-6.13,3.4-12.24,5-18.39.37-1.42,2.13-3.49-.6-4.25s-2.93,1.76-3.45,3.5c-1.17,3.93-2.24,7.88-3.35,11.83a67.61,67.61,0,0,1-4.34-12.31c-.43-1.57-.63-3.13-2.83-3.16-2.38,0-2.29,1.93-2.69,3.29C193.24,314,192.29,318,191.26,322Zm51.68-13.24c0-3,0-5.55,0-8.08,0-1.6-.73-2.28-2.32-2.26s-2.43.61-2.43,2.22q0,14.79,0,29.59c0,1.19,1.29,2.14,1.7,1.61,2.7-3.53,4.7-.14,6.94.5,4,1.12,8.16-.82,10.34-4.91a17.48,17.48,0,0,0,1.53-12.06C257.06,307.12,250.82,304.33,242.94,308.74ZM226.78,320.4c1.91,0,3.82,0,5.73,0,1.71,0,2.55-.5,2.58-2.46,0-5-3.55-10.06-8.14-11.07a10.53,10.53,0,0,0-12.4,6.44,16.37,16.37,0,0,0-.26,12.54,10.86,10.86,0,0,0,15.81,5.48,8.77,8.77,0,0,0,4.14-5c.29-1-.5-1.32-1.26-1.68-2.94-1.36-3.3,1.58-4.71,2.77-.13.11-.25.21-.38.3a5.27,5.27,0,0,1-6.63,0,5.65,5.65,0,0,1-2.53-5.82c.68-3,3.44-.89,5.2-1.39A10.83,10.83,0,0,1,226.78,320.4Zm73.15,12.35a9.1,9.1,0,0,0,8-3.4c.95-1.18,3.17-2.58,1.19-4.3s-3.34-.51-4.58,1.44a4.85,4.85,0,0,1-5.84,2.13,6.23,6.23,0,0,1-4.45-5.1c-.46-2.2-.06-3.26,2.49-3.14,3.66.16,7.32,0,11,0,1.47,0,2.79.07,2.92-2.12.31-5-3.56-10.45-8.34-11.42-7-1.42-12.63,3.27-13.49,11.25C287.9,326.37,292.37,332.53,299.93,332.75Zm95.37-12.34c2.06,0,4.12,0,6.19,0,1.43,0,2.33-.35,2.49-2.08.53-5.47-4.13-11.2-9.64-11.66-6-.5-10.83,3.51-11.94,9.86-1.34,7.65,2,14.62,7.82,15.91,4.41,1,8.64.32,11.53-3.65.74-1,2.88-2.32.65-3.85-1.45-1-2.89-.93-4,.87a7.62,7.62,0,0,1-2.74,2.52c-2.25,1.19-4.35.42-6.1-1.21-1.58-1.47-2.68-3.58-2.06-5.53.75-2.38,3.27-.79,5-1.15A15,15,0,0,1,395.3,320.41Zm21.16,12.32c5.63-.06,9.41-2.76,9.82-7,.43-4.47-2.21-7.12-8.36-8.39-1.24-.26-2.49-.49-3.72-.8-1.67-.41-3.13-1.33-2.86-3.2.25-1.72,1.66-2.57,3.45-2.73a5.81,5.81,0,0,1,5.75,2.57c1.1,1.6,2.66,1,3.78.25,1.54-1.09.21-2.28-.44-3.23-2.27-3.27-8.2-4.54-12.64-2.79a6.92,6.92,0,0,0-4.82,6.46,6.25,6.25,0,0,0,4.51,6.56c2.39.81,4.91,1.24,7.37,1.88,1.62.42,3.1,1.2,3.06,3.11-.05,2.09-1.65,3-3.47,3.32-3,.49-5.75-.12-7.44-3-1.19-2-2.86-1.31-4.05-.45-1.39,1-.25,2.33.45,3.3C409.21,331.87,412.61,332.85,416.46,332.73Zm-140.1,0c5.78,0,9.4-2.52,9.91-6.87.54-4.57-2-7.23-8.17-8.53-1.4-.29-2.81-.54-4.19-.92s-2.58-1.3-2.39-3.05a2.94,2.94,0,0,1,2.87-2.69c2.32-.32,4.48,0,5.9,2.13a2.6,2.6,0,0,0,4.13.62c1.62-1.51-.06-2.95-1.1-4-3.16-3.19-7.17-3.26-11.14-2.27-3.36.83-5.5,3-5.56,6.8-.05,3.56,1.75,5.7,5,6.69,2.27.69,4.64,1.06,6.94,1.67,1.64.44,3,1.33,2.8,3.3s-1.51,2.78-3.15,3.07c-3,.54-5.81,0-7.5-2.81-1.19-2-2.81-1.51-4.07-.68-1.83,1.22-.23,2.59.5,3.59C269.38,331.89,272.68,332.8,276.36,332.73Zm63.49-7.36c-2-6.17-3.81-11.19-5.3-16.3-.71-2.42-2.23-3-4.29-2.54-2.78.64-1.06,2.47-.66,3.74,2.1,6.48,4.34,12.92,6.46,19.4.58,1.75,1.1,3.09,3.46,3.1s2.93-1.33,3.49-3.07c2-6.34,4.09-12.66,6.07-19,.41-1.32,2.19-3.08-.11-4s-3.36.52-4,2.73C343.51,314.37,341.81,319.29,339.85,325.37Zm20.46-5.28a13.88,13.88,0,0,0,2.1,8.28,9.27,9.27,0,0,0,16.12-.38c.78-1.44,2.79-3.48.28-4.82-2.05-1.1-3.4.4-4.12,2.55a4.2,4.2,0,0,1-4.39,3c-2.14-.11-3.39-1.54-4.18-3.41a14.1,14.1,0,0,1-1-6.54c.23-3.26.72-6.65,4.25-7.86s5.09,1.43,6.18,4.32c.6,1.6,2,1.45,3.23,1.09,1.86-.57,1-2.06.67-3.17-1.21-3.61-3.63-5.89-7.52-6.39C365,305.91,360.34,311.08,360.31,320.09ZM105.86,293c11.58,6,23.3,5.74,35,0C124.94,286.68,120.46,286.68,105.86,293ZM132,249.84c11.33,5.7,22.9,5.52,34.24-.07C154.93,243.66,143.42,242.94,132,249.84Zm-17.4,0c-11.16-6.29-26.42-6.17-34,.09C91.79,255.62,103.32,255.15,114.61,249.83Zm129.22-43.47c-11.42-6.44-23.09-6.67-34.4,0C220.73,212.05,232.37,212.06,243.83,206.36Zm-51.24-.22c-17.26-6.31-20.38-6.3-35.16.09C169,212,180.65,212.07,192.59,206.14ZM313.67,319.48c0,3.5,0,7,0,10.5,0,1.69.43,2.69,2.38,2.75s2.42-.93,2.4-2.63c-.05-3.5-.14-7,0-10.5s1.2-6.81,5-7.88c2.35-.66,3.66-1.77,2.48-3.9-1.07-1.9-3.29-1.1-4.6-.09-1.7,1.33-2.71,1.49-4.57.09-1.21-.9-3.14-.31-3.1,2.11C313.72,313.11,313.68,316.3,313.67,319.48Zm43.6.38c0-3.47,0-6.95,0-10.43,0-1.77-.23-3.13-2.45-3.17-2,0-2.78.88-2.76,2.87q.07,10.44,0,20.87c0,2,.57,2.82,2.7,2.81s2.57-1.17,2.54-3C357.22,326.5,357.27,323.18,357.27,319.86Zm-2.65-22.57c-1.83.27-3,1.27-2.82,3.14a2.69,2.69,0,0,0,3.2,2.68,2.64,2.64,0,0,0,2.56-2.85C357.56,298.35,356.42,297.46,354.62,297.29Z" transform="translate(-3 -92)"/><path class="e7fbaa09-0321-4d3a-bf2c-8a771f47b998" d="M254.6,258.14c3.72-5.61,8.21-7.6,13.37-6.08s7.5,5,7.54,11.76c0,8.75-.24,17.5.09,26.24.16,4.52-2.54,3.84-5.19,3.79s-5.53.95-5.35-3.67c.29-7.47.13-14.95.07-22.43,0-2.92-.13-6.16-4.13-6.3s-5.51,2.84-5.61,6.3c-.19,7.47-.37,15,0,22.42.2,4.67-2.75,3.64-5.27,3.67s-5.48.84-5.24-3.77c.36-7,.15-14,.08-21,0-3.49.22-7.79-4.81-7.68-4.76.11-4.86,4.33-4.93,7.85-.14,7-.29,14,0,21,.21,4.7-2.87,3.55-5.35,3.6s-5.38.86-5.25-3.72c.29-10.81,0-21.63.15-32.45,0-2-1.44-5.4,2.73-5.15,3,.18,7.61-2.15,7.4,4.76,3-3.76,6.12-5.87,10.42-5.7C249.79,251.74,252.25,254.82,254.6,258.14Z" transform="translate(-3 -92)"/><path class="e7fbaa09-0321-4d3a-bf2c-8a771f47b998" d="M314.71,271.31c.48,5.3-.38,10.53,2.73,15.71,1.75,2.91-3.2,4.19-5,6.3-1.53,1.79-3.06.46-3.87-.85-1.84-3-3.21-3.05-6.11-.75-4.55,3.61-10,3.95-15.24,1.07-4.47-2.47-5.45-6.81-5.06-11.51.5-5.88,3.91-9.66,9.33-11.46a62.4,62.4,0,0,1,8.87-1.75c1.89-.34,4.23.27,3.9-3.17-.29-3.13-1.33-5.29-4.64-5.55a5.93,5.93,0,0,0-6,3.08c-1.37,2.37-7.21,3.36-9.38,1.76-1-.73-.79-1.56-.55-2.52a11,11,0,0,1,4.64-7c6.69-4.34,13.74-4.6,20.88-1.29a9.28,9.28,0,0,1,5.47,8.37C314.85,264.94,314.71,268.13,314.71,271.31Zm-10.54,6.15c.07-3.47,0-3.62-2.05-3.71-4.9-.22-8.76,3-8.86,7.3-.06,3,.75,5.48,4.23,5.77C301.24,287.13,304.07,283.08,304.17,277.46Z" transform="translate(-3 -92)"/><path class="e7fbaa09-0321-4d3a-bf2c-8a771f47b998" d="M216,271.51c.47,5.1-.66,10.19,2.53,15.19,2.14,3.34-3.08,4.24-4.7,6.46-1.29,1.76-3,1-3.88-.49-2.14-3.48-4-2.63-6.87-.57a13.19,13.19,0,0,1-14.84.62c-4.49-2.55-5.09-7-4.78-11.61.38-5.54,3.58-8.95,8.46-11.08,3.12-1.35,6.53-1.24,9.75-2,1.58-.38,4.13.71,3.9-2.63-.19-2.74-.75-5.16-3.79-5.85a5.93,5.93,0,0,0-6.93,2.85c-1.47,2.41-7,3.39-9.38,1.88-1.31-.83-.95-1.92-.62-2.92a12.26,12.26,0,0,1,5.67-7.37,21.19,21.19,0,0,1,19.26-.91c4,1.71,6,5.09,6.19,9.39C216.06,265.46,216,268.49,216,271.51Zm-10.47,5.61c-.36-1.08.88-2.82-1.31-3.39-2.7-.7-8,1.79-9.25,4.53-1.36,3.06-1.25,6.13,1.82,7.93,3.39,2,5.65-.31,7.35-3A11.4,11.4,0,0,0,205.48,277.12Z" transform="translate(-3 -92)"/><path class="e7fbaa09-0321-4d3a-bf2c-8a771f47b998" d="M405.53,258.27c2.63-2.58,3.81-4.88,6.32-5.89,6.31-2.54,13.32.7,14.39,7.4,1.68,10.56.52,21.27.67,31.92,0,3.13-2.66,1.87-4.32,2.15-4.57.79-6.55-.61-6.09-5.74.53-6,.15-12.08.1-18.12a28.69,28.69,0,0,0-.45-4.72c-.38-2.23-1.54-3.92-4-4.06s-3.84,1.33-4.76,3.34a15.08,15.08,0,0,0-1.1,6.52c0,6.52-.13,13.05.06,19.57.13,4.52-3.08,3.13-5.28,3.15s-5.34,1.32-5.28-3.17c.15-11,0-21.95.08-32.93,0-2.27-1.21-5.54,3.22-5.26C402.34,252.63,406.76,251,405.53,258.27Z" transform="translate(-3 -92)"/><path class="e7fbaa09-0321-4d3a-bf2c-8a771f47b998" d="M390.19,273.5a22.92,22.92,0,0,1-4.1,14.41c-6.84,9.65-20.95,9.16-26.65-1.17-4.77-8.63-4.71-17.71-.4-26.55,2.83-5.8,7.83-8.7,14.3-8.57s11.14,3.21,14.09,9A25.77,25.77,0,0,1,390.19,273.5Zm-23-1a26.84,26.84,0,0,0,1.1,9.8c.7,2.37,2,4.51,4.92,4.42s4.34-2,5-4.46a38.47,38.47,0,0,0-.15-18.89,4.54,4.54,0,0,0-4.4-3.72,4.78,4.78,0,0,0-5.17,3.37A22.52,22.52,0,0,0,367.19,272.52Z" transform="translate(-3 -92)"/><path class="e7fbaa09-0321-4d3a-bf2c-8a771f47b998" d="M338.33,260.79c-4,0-6.87-.19-9.71,0-3.47.28-4.68-.85-4.7-4.52s1.69-4.09,4.64-4c5.57.15,11.15-.07,16.72.11,2.09.06,5.13-1.31,6.09,1.06a8.61,8.61,0,0,1-1.44,8.52c-4.26,5.71-8.22,11.66-12.57,17.89,3.93.87,7.73.82,11.19,2.3s5.37,6.11,3.8,9.4c-.67,1.4-1.62,1.23-2.75.72a28.15,28.15,0,0,0-24,0c-1.74.78-2.82.55-2.89-1.5-.11-3.8-.25-7.49,2.32-10.9C329.45,274,333.51,267.73,338.33,260.79Z" transform="translate(-3 -92)"/><path class="badc2d62-cc23-424d-9d11-c559f899d5e8" d="M94.71,273.06c0,5.08-.12,9.21,0,13.34.11,2.64-1,3-3.12,2.19-5.09-1.77-10.19-3.55-15.34-5.15-1.92-.59-2.36-1.68-2.34-3.49.06-7.94.08-15.89,0-23.83,0-2.49.86-3.16,3.14-2.25,1,.41,2.12.64,3.18,1,4.67,1.5,10.88,1.32,13.64,4.8S94.35,269.13,94.71,273.06Z" transform="translate(-3 -92)"/><path class="badc2d62-cc23-424d-9d11-c559f899d5e8" d="M146.36,296.51c0,9.42-.05,18.32,0,27.21,0,2-.88,2.79-2.61,3.34-5,1.59-10,3.17-14.92,5-2.7,1-2.94-.2-2.92-2.35q.06-12.17,0-24.35c0-1.74.28-3,2.29-3.54C134.17,300.2,140.05,298.38,146.36,296.51Z" transform="translate(-3 -92)"/><path class="badc2d62-cc23-424d-9d11-c559f899d5e8" d="M100.15,272.89c.32-3.93-1.84-9.69.77-13.16s8.62-3.34,13.17-4.7c6.48-1.93,6.49-1.89,6.47,4.64s-.19,13.05,0,19.57c.09,2.78-.93,4-3.43,4.7-4.42,1.29-8.82,2.72-13.13,4.35-2.85,1.08-4.1.72-3.93-2.64C100.3,281.68,100.15,277.69,100.15,272.89Z" transform="translate(-3 -92)"/><path class="badc2d62-cc23-424d-9d11-c559f899d5e8" d="M146.41,274.07c0,4-.15,7.94.05,11.9.16,3.15-1.06,3.41-3.64,2.47-4.62-1.66-9.29-3.2-14-4.66-2.13-.66-3-1.78-2.93-4.09.14-7.77.13-15.55,0-23.32,0-2.82.91-3.17,3.4-2.34,4.66,1.56,9.39,2.92,14.14,4.17,2.2.58,3.12,1.61,3,4-.17,4,0,7.93,0,11.9Z" transform="translate(-3 -92)"/><path class="badc2d62-cc23-424d-9d11-c559f899d5e8" d="M151.83,272.93c.49-4-2.05-10.09,1-13.39,2.82-3,8.67-3.2,13.19-4.63a20.83,20.83,0,0,0,2.72-.82c2.78-1.29,3.56-.33,3.51,2.55-.15,7.76-.15,15.53,0,23.3,0,2.12-.71,3.09-2.69,3.71-4.84,1.49-9.64,3.13-14.41,4.84-2.46.88-3.47.36-3.36-2.4C151.94,282,151.83,277.85,151.83,272.93Z" transform="translate(-3 -92)"/><path class="badc2d62-cc23-424d-9d11-c559f899d5e8" d="M172,246.05c-6.27-2.07-12.23-4.09-18.23-6-2-.66-2-2.19-2-3.8,0-7.62.1-15.25-.05-22.86-.05-2.91.89-3.63,3.6-2.76,4.68,1.51,9.4,2.88,14.12,4.23,1.65.47,2.83,1,2.8,3.1-.1,7.94,0,15.88-.06,23.81C172.24,243,172.12,244.27,172,246.05Z" transform="translate(-3 -92)"/><path class="badc2d62-cc23-424d-9d11-c559f899d5e8" d="M120.56,317.4c0,4.12-.13,8.25,0,12.37.12,2.88-.88,3.14-3.32,2.21-5.46-2.09-12.59-2.51-16.07-6.32s-.77-10.9-1-16.56c-.15-3,.07-6-.06-9-.1-2.57.7-3.5,3.33-2.65,4.83,1.54,9.69,3,14.59,4.32,2.14.57,2.64,1.76,2.58,3.77-.12,4,0,7.93,0,11.9Z" transform="translate(-3 -92)"/><path class="badc2d62-cc23-424d-9d11-c559f899d5e8" d="M223.86,230.94c0,4.13-.08,8.25,0,12.38.05,2.27-.77,2.87-2.8,1.92-.29-.13-.6-.2-.9-.31-5.36-1.89-12.38-2.35-15.63-6.09s-.86-10.92-1-16.58c-.07-3.94-1.76-9.44.68-11.42s7.3,1.31,11.06,2.39c8.55,2.46,8.53,2.54,8.53,11.53Z" transform="translate(-3 -92)"/><path class="badc2d62-cc23-424d-9d11-c559f899d5e8" d="M229.35,246.11c0-9.77,0-19,0-28.14a2.63,2.63,0,0,1,2.28-3c5-1.39,10-2.94,15-4.48,2.21-.68,3.18-.16,3.14,2.34-.1,7.93-.07,15.86-.05,23.8,0,1.53-.21,2.77-1.95,3.33C241.79,241.93,235.82,244,229.35,246.11Z" transform="translate(-3 -92)"/><path class="badc2d62-cc23-424d-9d11-c559f899d5e8" d="M198,225v7.14c0,7.27,0,7.26-7.12,9.58-3.31,1.08-6.66,2.08-9.9,3.33-2.33.9-3.43.84-3.38-2.14.13-8.09.08-16.18,0-24.27,0-2,.35-3.2,2.55-3.78,4.9-1.28,9.74-2.79,14.57-4.32,2.53-.8,3.44-.13,3.32,2.57-.17,4,0,7.93,0,11.89Z" transform="translate(-3 -92)"/><path class="e7fbaa09-0321-4d3a-bf2c-8a771f47b998" d="M191.26,322c1-4,2-8,3.13-11.92.4-1.36.31-3.31,2.69-3.29,2.2,0,2.4,1.59,2.83,3.16a67.61,67.61,0,0,0,4.34,12.31c1.11-3.95,2.18-7.9,3.35-11.83.52-1.74.74-4.25,3.45-3.5s1,2.83.6,4.25c-1.58,6.15-3.31,12.26-5,18.39-.4,1.5-.38,3.16-2.69,3.24-2.56.1-2.64-1.74-3.11-3.38-1.11-3.81-2.2-7.62-3.54-12.24-2.2,4.18-2.41,8.28-3.78,12-.56,1.5-.1,3.56-2.8,3.67s-2.7-1.82-3.15-3.36c-1.87-6.39-3.64-12.82-5.4-19.25-.34-1.23-1.56-2.91.86-3.34,1.56-.27,3.12-.26,3.67,1.95,1.12,4.44,2.45,8.82,3.7,13.23Z" transform="translate(-3 -92)"/><path class="e7fbaa09-0321-4d3a-bf2c-8a771f47b998" d="M242.94,308.74c7.88-4.41,14.12-1.62,15.78,6.61a17.48,17.48,0,0,1-1.53,12.06c-2.18,4.09-6.37,6-10.34,4.91-2.24-.64-4.24-4-6.94-.5-.41.53-1.7-.42-1.7-1.61q0-14.81,0-29.59c0-1.61.9-2.2,2.43-2.22s2.34.66,2.32,2.26C242.91,303.19,242.94,305.72,242.94,308.74Zm11.17,11c0-5.37-2.18-9.38-5.24-9.55-3.46-.2-5.93,3.7-5.92,9.33,0,.16,0,.32,0,.48.06,5.49,2.41,9,5.93,8.75C252,328.56,254.1,324.89,254.11,319.73Z" transform="translate(-3 -92)"/><path class="e7fbaa09-0321-4d3a-bf2c-8a771f47b998" d="M226.78,320.4a10.83,10.83,0,0,0-2.85.05c-1.76.5-4.52-1.62-5.2,1.39a5.65,5.65,0,0,0,2.53,5.82,5.27,5.27,0,0,0,6.63,0c.13-.09.25-.19.38-.3,1.41-1.19,1.77-4.13,4.71-2.77.76.36,1.55.71,1.26,1.68a8.77,8.77,0,0,1-4.14,5,10.86,10.86,0,0,1-15.81-5.48,16.37,16.37,0,0,1,.26-12.54,10.53,10.53,0,0,1,12.4-6.44c4.59,1,8.19,6.06,8.14,11.07,0,2-.87,2.5-2.58,2.46C230.6,320.37,228.69,320.4,226.78,320.4ZM224,317c1.8-1.14,5.05,1.36,5.47-1.78.36-2.69-1.83-4.75-4.83-4.83-3.18-.08-5.54,2-5.5,4.82C219.22,318.57,222.51,315.79,224,317Z" transform="translate(-3 -92)"/><path class="e7fbaa09-0321-4d3a-bf2c-8a771f47b998" d="M299.93,332.75c-7.56-.22-12-6.38-11.14-14.63.86-8,6.48-12.67,13.49-11.25,4.78,1,8.65,6.43,8.34,11.42-.13,2.19-1.45,2.12-2.92,2.12-3.66,0-7.32.13-11,0-2.55-.12-3,.94-2.49,3.14a6.23,6.23,0,0,0,4.45,5.1,4.85,4.85,0,0,0,5.84-2.13c1.24-1.95,2.74-3,4.58-1.44s-.24,3.12-1.19,4.3A9.1,9.1,0,0,1,299.93,332.75Zm-.06-15.53c1.33-1.91,4.81,1.65,5.14-2,.25-2.7-1.9-4.72-4.91-4.75-3.17,0-5.55,2-5.46,4.85C294.75,318.53,298,315.84,299.87,317.22Z" transform="translate(-3 -92)"/><path class="e7fbaa09-0321-4d3a-bf2c-8a771f47b998" d="M395.3,320.42a14.25,14.25,0,0,0-2.85,0c-1.71.36-4.23-1.23-5,1.15-.62,1.95.48,4.06,2.06,5.53,1.75,1.63,3.85,2.4,6.1,1.21a7.62,7.62,0,0,0,2.74-2.52c1.14-1.8,2.58-1.86,4-.87,2.23,1.53.09,2.84-.65,3.85-2.89,4-7.12,4.61-11.53,3.65-5.87-1.29-9.16-8.26-7.82-15.91,1.11-6.35,6-10.36,11.94-9.86,5.51.46,10.17,6.19,9.64,11.66-.16,1.73-1.06,2.09-2.49,2.08C399.42,320.4,397.36,320.41,395.3,320.42ZM392.85,317c1.88-1.06,5.2,1.29,5.57-1.7s-2-5-5.26-4.88c-2.92.11-5.14,2.11-5.08,4.76C388.14,318.63,391.39,315.77,392.85,317Z" transform="translate(-3 -92)"/><path class="e7fbaa09-0321-4d3a-bf2c-8a771f47b998" d="M416.46,332.72c-3.85.13-7.25-.85-9.61-4.13-.7-1-1.84-2.3-.45-3.3,1.19-.86,2.86-1.57,4.05.45,1.69,2.86,4.42,3.47,7.44,3,1.82-.29,3.42-1.23,3.47-3.32,0-1.91-1.44-2.69-3.06-3.11-2.46-.64-5-1.07-7.37-1.88a6.25,6.25,0,0,1-4.51-6.56,6.92,6.92,0,0,1,4.82-6.46c4.44-1.75,10.37-.48,12.64,2.79.65.95,2,2.14.44,3.23-1.12.8-2.68,1.35-3.78-.25a5.81,5.81,0,0,0-5.75-2.57c-1.79.16-3.2,1-3.45,2.73-.27,1.87,1.19,2.79,2.86,3.2,1.23.31,2.48.54,3.72.8,6.15,1.27,8.79,3.92,8.36,8.39C425.87,330,422.09,332.67,416.46,332.72Z" transform="translate(-3 -92)"/><path class="e7fbaa09-0321-4d3a-bf2c-8a771f47b998" d="M276.36,332.73c-3.68.07-7-.84-9.25-4-.73-1-2.33-2.37-.5-3.59,1.26-.83,2.88-1.33,4.07.68,1.69,2.85,4.48,3.35,7.5,2.81,1.64-.29,3-1.17,3.15-3.07s-1.16-2.86-2.8-3.3c-2.3-.61-4.67-1-6.94-1.67-3.22-1-5-3.13-5-6.69.06-3.79,2.2-6,5.56-6.8,4-1,8-.92,11.14,2.27,1,1.05,2.72,2.49,1.1,4a2.6,2.6,0,0,1-4.13-.62c-1.42-2.17-3.58-2.45-5.9-2.13a2.94,2.94,0,0,0-2.87,2.69c-.19,1.75.88,2.64,2.39,3.05s2.79.63,4.19.92c6.16,1.3,8.71,4,8.17,8.53C285.76,330.21,282.14,332.72,276.36,332.73Z" transform="translate(-3 -92)"/><path class="e7fbaa09-0321-4d3a-bf2c-8a771f47b998" d="M339.85,325.37c2-6.08,3.66-11,5.11-16,.65-2.21,1.78-3.66,4-2.73s.52,2.72.11,4c-2,6.35-4.06,12.67-6.07,19-.56,1.74-1.13,3.09-3.49,3.07s-2.88-1.35-3.46-3.1c-2.12-6.48-4.36-12.92-6.46-19.4-.4-1.27-2.12-3.1.66-3.74,2.06-.48,3.58.12,4.29,2.54C336,314.18,337.82,319.2,339.85,325.37Z" transform="translate(-3 -92)"/><path class="e7fbaa09-0321-4d3a-bf2c-8a771f47b998" d="M360.31,320.09c0-9,4.66-14.18,11.6-13.3,3.89.5,6.31,2.78,7.52,6.39.37,1.11,1.19,2.6-.67,3.17-1.19.36-2.63.51-3.23-1.09-1.09-2.89-2.59-5.54-6.18-4.32s-4,4.6-4.25,7.86a14.1,14.1,0,0,0,1,6.54c.79,1.87,2,3.3,4.18,3.41a4.2,4.2,0,0,0,4.39-3c.72-2.15,2.07-3.65,4.12-2.55,2.51,1.34.5,3.38-.28,4.82a9.27,9.27,0,0,1-16.12.38A13.88,13.88,0,0,1,360.31,320.09Z" transform="translate(-3 -92)"/><path class="badc2d62-cc23-424d-9d11-c559f899d5e8" d="M105.86,293c14.6-6.36,19.08-6.36,35,0C129.16,298.78,117.44,299.09,105.86,293Z" transform="translate(-3 -92)"/><path class="badc2d62-cc23-424d-9d11-c559f899d5e8" d="M132,249.84c11.41-6.9,22.92-6.18,34.24-.07C154.91,255.36,143.34,255.54,132,249.84Z" transform="translate(-3 -92)"/><path class="badc2d62-cc23-424d-9d11-c559f899d5e8" d="M114.61,249.83c-11.29,5.32-22.82,5.79-34,.09C88.19,243.66,103.45,243.54,114.61,249.83Z" transform="translate(-3 -92)"/><path class="badc2d62-cc23-424d-9d11-c559f899d5e8" d="M243.83,206.36c-11.46,5.7-23.1,5.69-34.4,0C220.74,199.69,232.41,199.92,243.83,206.36Z" transform="translate(-3 -92)"/><path class="badc2d62-cc23-424d-9d11-c559f899d5e8" d="M192.59,206.14c-11.94,5.93-23.59,5.9-35.16.09C172.21,199.84,175.33,199.83,192.59,206.14Z" transform="translate(-3 -92)"/><path class="e7fbaa09-0321-4d3a-bf2c-8a771f47b998" d="M313.68,319.48c0-3.18,0-6.37,0-9.55,0-2.42,1.89-3,3.1-2.11,1.86,1.4,2.87,1.24,4.57-.09,1.31-1,3.53-1.81,4.6.09,1.18,2.13-.13,3.24-2.48,3.9-3.78,1.07-4.8,4.4-5,7.88s-.08,7,0,10.5c0,1.7-.43,2.68-2.4,2.63s-2.4-1.06-2.38-2.75C313.71,326.48,313.67,323,313.68,319.48Z" transform="translate(-3 -92)"/><path class="e7fbaa09-0321-4d3a-bf2c-8a771f47b998" d="M357.27,319.86c0,3.32,0,6.64,0,10,0,1.82-.26,3-2.54,3S352,332,352.05,330q.1-10.44,0-20.87c0-2,.73-2.91,2.76-2.87,2.22,0,2.48,1.4,2.45,3.17C357.23,312.91,357.27,316.39,357.27,319.86Z" transform="translate(-3 -92)"/><path class="e7fbaa09-0321-4d3a-bf2c-8a771f47b998" d="M354.62,297.29c1.8.17,2.94,1.06,2.94,3a2.64,2.64,0,0,1-2.56,2.85,2.69,2.69,0,0,1-3.2-2.68C351.66,298.56,352.79,297.56,354.62,297.29Z" transform="translate(-3 -92)"/><path class="a8bf7051-91b2-434d-9b26-64df82a16bb3" d="M304.17,277.46c-.1,5.62-2.93,9.67-6.68,9.36-3.48-.29-4.29-2.77-4.23-5.77.1-4.34,4-7.52,8.86-7.3C304.16,273.84,304.24,274,304.17,277.46Z" transform="translate(-3 -92)"/><path class="a8bf7051-91b2-434d-9b26-64df82a16bb3" d="M205.48,277.12a11.4,11.4,0,0,1-1.39,6c-1.7,2.72-4,5-7.35,3-3.07-1.8-3.18-4.87-1.82-7.93,1.21-2.74,6.55-5.23,9.25-4.53C206.36,274.3,205.12,276,205.48,277.12Z" transform="translate(-3 -92)"/><path class="a8bf7051-91b2-434d-9b26-64df82a16bb3" d="M367.19,272.52a22.52,22.52,0,0,1,1.27-9.48,4.78,4.78,0,0,1,5.17-3.37,4.54,4.54,0,0,1,4.4,3.72,38.47,38.47,0,0,1,.15,18.89c-.63,2.45-2.22,4.37-5,4.46s-4.22-2.05-4.92-4.42A26.84,26.84,0,0,1,367.19,272.52Z" transform="translate(-3 -92)"/><path class="a8bf7051-91b2-434d-9b26-64df82a16bb3" d="M254.11,319.73c0,5.16-2.14,8.83-5.23,9-3.52.21-5.87-3.26-5.93-8.75,0-.16,0-.32,0-.48,0-5.63,2.46-9.53,5.92-9.33C251.93,310.35,254.12,314.36,254.11,319.73Z" transform="translate(-3 -92)"/><path class="a8bf7051-91b2-434d-9b26-64df82a16bb3" d="M224,317c-1.52-1.21-4.81,1.57-4.86-1.79,0-2.82,2.32-4.9,5.5-4.82,3,.08,5.19,2.14,4.83,4.83C229.08,318.36,225.83,315.86,224,317Z" transform="translate(-3 -92)"/><path class="a8bf7051-91b2-434d-9b26-64df82a16bb3" d="M299.87,317.22c-1.86-1.38-5.12,1.31-5.23-1.94-.09-2.82,2.29-4.88,5.46-4.85,3,0,5.16,2.05,4.91,4.75C304.68,318.87,301.2,315.31,299.87,317.22Z" transform="translate(-3 -92)"/><path class="a8bf7051-91b2-434d-9b26-64df82a16bb3" d="M392.85,317c-1.46-1.23-4.71,1.63-4.77-1.82-.06-2.65,2.16-4.65,5.08-4.76,3.24-.11,5.61,2,5.26,4.88S394.73,315.94,392.85,317Z" transform="translate(-3 -92)"/></svg>