<svg id="Layer_1" data-name="Layer 1" xmlns="http://www.w3.org/2000/svg" xmlns:xlink="http://www.w3.org/1999/xlink" viewBox="0 0 651.8048 635.0089"><defs><style>.cls-1{fill:#fd4714;}.cls-2{fill:#cc2f0a;}.cls-3{fill:url(#linear-gradient);}.cls-4{fill:url(#linear-gradient-2);}.cls-5{fill:url(#linear-gradient-3);}</style><linearGradient id="linear-gradient" x1="431.3674" y1="96.5702" x2="431.3674" y2="538.4387" gradientUnits="userSpaceOnUse"><stop offset="0" stop-color="#fd4714"/><stop offset="1" stop-color="#1e2836" stop-opacity="0"/></linearGradient><linearGradient id="linear-gradient-2" x1="495.5033" y1="624.5099" x2="495.5033" y2="403.5756" gradientUnits="userSpaceOnUse"><stop offset="0" stop-color="#fd4714"/><stop offset="0.0399" stop-color="#f34616" stop-opacity="0.9537"/><stop offset="0.4006" stop-color="#993923" stop-opacity="0.5507"/><stop offset="0.691" stop-color="#57302d" stop-opacity="0.2543"/><stop offset="0.8971" stop-color="#2e2a34" stop-opacity="0.0705"/><stop offset="1" stop-color="#1e2836" stop-opacity="0"/></linearGradient><linearGradient id="linear-gradient-3" x1="493.0625" y1="209.4981" x2="493.0625" y2="-11.4362" gradientTransform="matrix(1, 0, 0, -1, -3.0921, 217.1155)" xlink:href="#linear-gradient-2"/></defs><polygon class="cls-1" points="0 0 153.706 0 449.242 317.504 295.777 317.504 0 0"/><polygon class="cls-2" points="0 635.009 153.706 635.009 449.242 317.504 295.777 317.504 0 635.009"/><polygon class="cls-3" points="382.022 96.57 275.066 96.57 480.881 317.504 275.066 538.439 382.022 538.439 587.669 317.504 382.022 96.57"/><polygon class="cls-4" points="651.805 403.576 446.158 624.51 339.202 624.51 545.017 403.576 651.805 403.576"/><polygon class="cls-5" points="646.272 228.552 440.625 7.617 333.669 7.617 539.484 228.552 646.272 228.552"/></svg>