<svg id="a98a0489-0521-4c73-a275-42e1bd36a32e" data-name="Layer 7" xmlns="http://www.w3.org/2000/svg" viewBox="0 0 493.33 425.14"><defs><style>.b7d79496-c1b0-47d0-af2e-acda2c6dba84{fill:#333;}.afef94ce-a17c-4f74-9db4-579cfb442e67{fill:#689e63;}.b8179647-a6a9-4ba8-bb5e-6cc6358d0750{fill:#3e853d;}.a1d72827-0e14-4425-9cc5-04584773b842{fill:#73aa63;}.a572523b-8c38-4164-87ec-310211bcb7e4{fill:#6ba35e;}.bf1abc47-b438-401d-a1b9-30b69a16f301{fill:#70a760;}.a991073d-3e66-4c75-8ae7-440db229925e{fill:#75ad63;}.b8c5c333-d1eb-41e4-aa58-c2aa89e5a998{fill:#6bbe47;}.a1c2f675-6fe9-4bfa-99e0-4e053bdd74a5{fill:#77b162;}.f0656e7e-7f8b-447e-ac4e-832e8a0f0d57{fill:#68a05c;}.ba47d431-922b-49df-a3e5-46de74ee8eca{fill:#639958;}.af48d9d2-0b89-4e56-a040-38ed8b402655{fill:#78b360;}.ee678004-8f5e-412f-9fb1-c1928e61be59{fill:#73b856;}.f1e3ebd9-17e5-48bb-bb5c-5cbf6adecbfa{fill:#669c5a;}.fc57c227-e196-4c62-9fa7-6c6058fae781{fill:#70ba51;}.b9000fcb-2c92-429e-a287-4cb784303d37{fill:#75b65b;}.f173bfc7-ebbe-4ac8-bc94-43403de74f71{fill:#498c45;}.fd1e2a1b-43df-4a0c-b066-a8186cc9ce4c{fill:#659d5a;}.bd229ec1-26ab-45f5-8769-cc0650cd00c0{fill:#6ebc4d;}.ace46a9d-471c-4168-b820-a601258ff6e4{fill:#3d833c;}.b9bc00d2-f63d-4ad7-a6e9-41c6e416e13e{fill:#56994c;}.be4980fc-95e1-44a7-bedc-79d43fbbf2e2{fill:#6aa05c;}.f63fb33a-f835-4942-b030-c7ed5fcc8102{fill:#609b57;}.bb28f41b-4148-4784-ae90-efee3f2f903e{fill:#57954f;}.af877021-faf7-4b24-bd49-646950f4a7c5{fill:#579e4a;}.f1d02a42-b770-4c26-9f23-5a51697e7dab{fill:#5c9853;}.e6f3f9e6-e02d-4775-a9e6-c2c816bff69f{fill:#52924b;}.ab567b6c-692d-4d1d-84fa-b85060769738{fill:#55944e;}.be338912-03dd-4bd5-8c5d-476891e00388{fill:#58a348;}.b55d31f0-433c-46dc-a433-20c72bdee17c{fill:#59a846;}.ad6bf28b-d97a-40df-af69-5ed3bf7487bd{fill:#428840;}.f83dad58-a52c-4409-93d2-d9251d7a5136{fill:#5f9755;}.ed7cc823-811b-4b0a-9d5c-1f49c97e3735{fill:#418740;}.b4f884b4-d5e7-4e57-93e6-75d68bf6ac90{fill:#468a43;}.ba0806ad-d1a0-43b1-8de1-a2a2037e9e95{fill:#4b8d47;}.e3866ae8-c7f6-4d72-94a8-14e2b62a31c2{fill:#4d8b48;}.fcbf9a1c-9a24-4334-82fb-483a74414596{fill:#ededed;}.ba6b0acf-0dc0-4045-84f7-1757cc39bf34{fill:#fff;}</style></defs><path class="b7d79496-c1b0-47d0-af2e-acda2c6dba84" d="M336.68,26.86c8.95,5.08,17.84,10.26,26.86,15.18,3.23,1.76,4.52,4.05,4.51,7.68q-.1,66.18,0,132.36a8.35,8.35,0,0,1-4.67,8.09q-22,12.48-43.8,25.23c-3.31,1.95-6,1.88-9.28-.05q-21.62-12.69-43.44-25c-3.38-1.92-5-4.29-4.94-8.34.17-16.89.14-33.79,0-50.68,0-3.64,1.2-5.93,4.4-7.74Q288.51,111,310.5,98.14c3.12-1.83,5.85-2.06,8.92,0,2.66,1.76,5.52,3.23,8.32,4.79,4,2.2,4.87,1.72,4.88-2.77,0-12.29,0-24.58,0-36.86,0-10.33,0-20.67,0-31a7.75,7.75,0,0,1,1.57-5.41Z" transform="translate(-3.67 -26.86)"/><path class="afef94ce-a17c-4f74-9db4-579cfb442e67" d="M247.21,452l-35.56-21.94c9.78-7.35,18.74-10.18,28.5-1.42,8.28,7.43,16.19,6.87,26,.73,23.8-14.92,48.46-28.49,72.91-42.37,4.16-2.36,5.85-5,5.82-9.85q-.28-46.8,0-93.6c0-4.45-1.46-7.1-5.34-9.31q-40.63-23.15-81-46.71c-3.91-2.29-6.81-2.18-10.63.06q-40,23.4-80.27,46.34c-4.51,2.56-6,5.5-6,10.58q.33,46,0,91.93c0,5.07,1.35,8.27,6,10.62,6.71,3.37,12.91,7.74,19.62,11.09,12.69,6.33,21.48.8,21.51-13.33.06-30.36.17-60.73-.11-91.09-.05-6.28,1.29-9,8.26-8.92,6.71.08,8.53,2.43,8.48,8.87-.27,31.2,0,62.4-.17,93.6-.17,24.75-17.79,36.39-40.77,27-10.86-4.43-20.65-11-30.63-17-6-3.63-8.35-9.45-8.35-16.32q0-50.56,0-101.13c0-7.25,3-13.06,9.28-16.7q44.4-25.8,89-51.33c6.55-3.75,13.37-3.5,19.89.26q43.41,25,86.78,50.1c7.52,4.33,10.7,10.63,10.65,19.29-.19,32.87-.14,65.74,0,98.62,0,8.32-3.29,14.44-10.45,18.58q-43,24.87-86,49.75c-2.34,1.35-4.83,2.41-7.26,3.61Z" transform="translate(-3.67 -26.86)"/><path class="b7d79496-c1b0-47d0-af2e-acda2c6dba84" d="M3.71,161.84V150.09q.06-12.17.11-24.34c.59-1.94,2.28-2.68,3.85-3.58,14.73-8.49,29.49-16.92,44.15-25.52a7.81,7.81,0,0,1,8.9,0q22,12.91,44.17,25.47a8,8,0,0,1,4.49,7.78c-.08,23-.06,46.1-.13,69.15,0,5.23-1.8,6.15-6.42,3.49-7.85-4.51-15.6-9.23-23.6-13.45-4-2.13-5.43-4.91-5.3-9.35.26-9.63,0-19.27.12-28.91.06-3.93-1.34-6.49-4.87-8.4-16.07-8.7-9.75-8.7-25.91,0-3.6,1.94-4.83,4.52-4.77,8.41.14,9.92-.06,19.84.1,29.76.06,3.78-1.23,6.21-4.63,8.06-8.32,4.53-16.45,9.4-24.69,14.07-1.92,1.09-4,2.48-5.61-.53q0-9.72,0-19.43Z" transform="translate(-3.67 -26.86)"/><path class="b7d79496-c1b0-47d0-af2e-acda2c6dba84" d="M497,127.25q0,8.16,0,16.32c-.35,2.22-2.1,3.16-3.79,4.15-8.41,4.93-16.81,9.89-25.26,14.76-4.27,2.46-6.79,1.21-5.94-3.69,1.78-10.26-2.75-15.7-11.63-19.89-4.71-2.22-7.71-2-12.39,0-9.32,4.15-13,10.12-11.73,20.33.58,4.9,1.42,7.92,6.08,10.43,13.87,7.43,27.41,15.49,41.05,23.34,1.51.87,3.49,1.41,3.54,3.71s-1.88,2.88-3.42,3.74c-8.26,4.65-16.56,9.21-24.75,14a7.54,7.54,0,0,1-8.24.07q-22.33-12.72-44.73-25.33a7.43,7.43,0,0,1-4.14-7.13q.11-26,0-52c0-3.3,1.34-5.38,4.21-7q22.31-12.75,44.46-25.8c3.18-1.89,5.8-1.77,8.9.07,14.5,8.6,29.09,17,43.65,25.56C494.65,123.94,496.6,124.86,497,127.25Z" transform="translate(-3.67 -26.86)"/><path class="afef94ce-a17c-4f74-9db4-579cfb442e67" d="M278.65,282.94a59.77,59.77,0,0,1,23,3.43c10.25,3.71,16.69,10.87,18.91,21.48.6,2.85,2.57,7.79-2.15,8.24s-10.67,3.62-14-3.12c-7.13-14.35-33.45-20.31-46-10.41-3,2.41-4.66,5.61-4.08,9.5s3.3,5.49,6.77,6.52c11.26,3.32,23,3.66,34.44,6.13,3.26.7,6.58,1.19,9.77,2.11,10.64,3.09,18.45,8.84,19.74,20.93,1.14,10.67-4.2,22.26-14.36,27.08-20.58,9.74-41.62,9-62.07-.31-8.5-3.88-13.45-11.57-14.58-21.09-.32-2.71-1.61-7.17,3.12-7,4.46.13,11.38-3.57,13.08,3.06,3.28,12.8,12.53,15.36,23.36,15.7,8,.26,16.15,1.09,24-1.62,5.77-2,9.72-5.45,9.75-12s-5.09-8.53-9.93-9.45c-11.73-2.23-23.63-3.5-35.39-5.58-18.24-3.21-25.73-11.63-25.09-27.35.43-10.35,6.2-17,14.92-21.4C260.26,283.48,269.36,282.54,278.65,282.94Z" transform="translate(-3.67 -26.86)"/><path class="b8179647-a6a9-4ba8-bb5e-6cc6358d0750" d="M187.57,215.6c-1.77,1.58-3.46.49-5-.36q-23.16-13.2-46.25-26.5a4.57,4.57,0,0,1-2.51-2.63c1.63-4.61,4.6-8.49,6.85-12.77,1.83-2.72,3.27-5.67,5-8.47,1.48-2.44,3-4.82,4.31-7.39.72-1.18,1.31-2.52,3-2.64a2.73,2.73,0,0,1,1.46,1c1.36,2.55,2.84,5,4.33,7.54a74.17,74.17,0,0,0,4.2,7.54,82.58,82.58,0,0,0,5,9.14,48.6,48.6,0,0,0,4.13,7.56,58.45,58.45,0,0,0,4.2,7.54c1.17,2.21,2.2,4.49,3.42,6.67s2.58,4.25,3.64,6.51C184.33,211,186.16,213.17,187.57,215.6Z" transform="translate(-3.67 -26.86)"/><path class="a1d72827-0e14-4425-9cc5-04584773b842" d="M187.57,215.6c-3.12-1.22-3.67-4.34-5.06-6.84.62-2.9.19-5.83.2-8.74q.07-48.15,0-96.29c0-2.47-.48-5.08,1.33-7.23a3.12,3.12,0,0,1,2.52-.07c2.55,1.71,4,4,3.78,7.19.21,35.18,0,70.35.08,105.52,0,2,0,3.94-1.31,5.59Z" transform="translate(-3.67 -26.86)"/><path class="a572523b-8c38-4164-87ec-310211bcb7e4" d="M200.89,208c-1.81,1.37-3.61,2.75-5.92,3.17-2.59-1.7-2-4.44-2.07-6.84-.13-12.15-.05-24.3-.06-36.45,0-16.06,0-32.12,0-48.19,0-2.62-.27-5.34,1.28-7.72a1.66,1.66,0,0,1,2.81.29c2,3.22,4.94,6.1,4.63,10.38-.51,13.54-.15,27.08-.21,40.62s-.07,27.08,0,40.63A8.48,8.48,0,0,1,200.89,208Z" transform="translate(-3.67 -26.86)"/><path class="bf1abc47-b438-401d-a1b9-30b69a16f301" d="M195,111.53a23.05,23.05,0,0,0-.84,7q0,42.84,0,85.69a23.08,23.08,0,0,0,.82,7,16.32,16.32,0,0,1-5.81,3.57q0-54.25,0-108.49c0-1.34-.46-2.84.82-3.93C193.78,104.21,195,107.52,195,111.53Z" transform="translate(-3.67 -26.86)"/><path class="a991073d-3e66-4c75-8ae7-440db229925e" d="M184.09,96.5q0,53.85-.05,107.69c0,1.56,1.16,3.8-1.53,4.57q-1.75-3.33-3.5-6.66a82.83,82.83,0,0,1-.48-11.25q0-42.42,0-84.85c0-2.48-.32-5,1.27-7.27C181.11,97.73,182.24,96.42,184.09,96.5Z" transform="translate(-3.67 -26.86)"/><path class="b8c5c333-d1eb-41e4-aa58-c2aa89e5a998" d="M153.86,156l-.82-.83c-2.75-1.57-3.57-4.52-5-7a29.32,29.32,0,0,0-3.28-5.31c-2.78-5.27-5.47-10.58-8.32-15.81-.55-1-1-2-.3-3.13a214.08,214.08,0,0,1,18.54-10.79c1.56,1.38,1.38,3.27,1.38,5,.07,11.17.09,22.34-.07,33.5C156,153.24,157,155.76,153.86,156Z" transform="translate(-3.67 -26.86)"/><path class="a1c2f675-6fe9-4bfa-99e0-4e053bdd74a5" d="M179.82,98.73q0,50,.07,99.9c0,1.21.33,2.55-.88,3.47a19,19,0,0,1-3.35-6.62,16,16,0,0,1-1.31-6.93q0-41,0-82.08a16.28,16.28,0,0,1,.62-5A14.11,14.11,0,0,1,179.82,98.73Z" transform="translate(-3.67 -26.86)"/><path class="f0656e7e-7f8b-447e-ac4e-832e8a0f0d57" d="M200.89,208c-.93-1.51-.87-3.19-.87-4.87q0-38.33,0-76.66c0-1.68-.1-3.36.84-4.87,2.9-.07,2.91,2.67,4.14,4.23.8,1.7,1.73,3.37,1.33,5.37.13,23.31,0,46.62.07,69.94a11.07,11.07,0,0,1-.55,4.12A16.84,16.84,0,0,1,200.89,208Z" transform="translate(-3.67 -26.86)"/><path class="ba47d431-922b-49df-a3e5-46de74ee8eca" d="M204.22,125.78c-1.56-1-1.4-3.46-3.36-4.19A29.46,29.46,0,0,0,195,111.53a31.23,31.23,0,0,0-5-9.22l-3.35-5.88c5.23,1.57,9.57,4.81,14.16,7.58a6.69,6.69,0,0,0,1.72,4.17c8.35,11.11,16.17,22.62,25.27,33.16a2.2,2.2,0,0,1,.31,1.12c-.45,2.2-1.88,3.82-3.32,5.43a3,3,0,0,1-1.53.87c-3.45-.57-4.8-3.57-6.53-5.95C212.56,137.11,208.55,131.33,204.22,125.78Z" transform="translate(-3.67 -26.86)"/><path class="af48d9d2-0b89-4e56-a040-38ed8b402655" d="M175,101.51c1.1,1,.74,2.33.74,3.55q0,45.21,0,90.42c-2.2-2.08-3.25-4.79-4.19-7.57a16.42,16.42,0,0,1-1.32-7.33q0-35.12,0-70.24c0-2.61-.39-5.4,2.17-7.28A4.55,4.55,0,0,1,175,101.51Z" transform="translate(-3.67 -26.86)"/><path class="ee678004-8f5e-412f-9fb1-c1928e61be59" d="M167.29,180.36a28,28,0,0,1-5.08-9.27c.82-19.6.33-39.2.37-58.8,0-1.36-.5-2.79.56-4a15.58,15.58,0,0,1,5-2.81c1.61,1.53,1.39,3.57,1.39,5.48q.06,31.29,0,62.58C169.49,176,169.73,178.64,167.29,180.36Z" transform="translate(-3.67 -26.86)"/><path class="f1e3ebd9-17e5-48bb-bb5c-5cbf6adecbfa" d="M227.65,141.7c-2.83-.28-3.57-3-4.91-4.72-6.07-7.69-11.78-15.66-17.58-23.56-1.8-2.45-3.48-5-5.24-7.47-.84-1.17-.5-1.76.85-1.94a112.71,112.71,0,0,1,15.75,9.21c.21,2.68,2.25,4.36,3.61,6.38,3.58,5.32,7.61,10.32,11.37,15.52C231.48,138.05,229.73,140,227.65,141.7Z" transform="translate(-3.67 -26.86)"/><path class="fc57c227-e196-4c62-9fa7-6c6058fae781" d="M163.14,108.29c1,16.12.14,32.26.43,48.39.06,3.29.11,6.57,0,9.85-.05,1.6.13,3.36-1.38,4.56a20,20,0,0,1-4.17-7.55c-.94-16.15-.25-32.32-.4-48.48a7.37,7.37,0,0,1,1.32-4.33A11.29,11.29,0,0,1,163.14,108.29Z" transform="translate(-3.67 -26.86)"/><path class="b9000fcb-2c92-429e-a287-4cb784303d37" d="M167.29,180.36a27,27,0,0,0,.91-5.33q-.1-34.77-.09-69.55a10.36,10.36,0,0,1,4.23-2.42c-1,1.8-.82,3.78-.82,5.72q0,39.57-.05,79.13C169.22,185.87,168.25,183.12,167.29,180.36Z" transform="translate(-3.67 -26.86)"/><path class="f173bfc7-ebbe-4ac8-bc94-43403de74f71" d="M224.34,194.54a18.76,18.76,0,0,1-5.86,3.38c-.91-8.15-.26-16.33-.42-24.49-.09-4.72,0-9.44,0-14.15,0-2.09,0-4.2,1.54-5.89a3.31,3.31,0,0,1,1.8-1c5.32,3.28,11.16,5.59,16.6,8.67a16.6,16.6,0,0,1,.14,3.66c-1.95,2-3.51-.14-5.14-.62a28,28,0,0,1-4.85-2.33c-1.9-1-2.48-.09-2.57,1.67,0,8.66,0,17.3,0,26C225.59,191.19,225.54,193,224.34,194.54Z" transform="translate(-3.67 -26.86)"/><path class="fd1e2a1b-43df-4a0c-b066-a8186cc9ce4c" d="M205.85,205.25c-.91-1.37-.8-2.92-.8-4.45q0-33.45,0-66.91c0-1.34-.46-2.83.83-3.92,2.74.69,3.07,3,3.59,5.24.37,21.4.08,42.79.17,64.18a7.52,7.52,0,0,1-1.26,4.33Z" transform="translate(-3.67 -26.86)"/><path class="bd229ec1-26ab-45f5-8769-cc0650cd00c0" d="M159,110.73c0,16,0,32.06-.05,48.09,0,1.59.65,3.38-.87,4.72a19.43,19.43,0,0,1-4.18-7.55,1.78,1.78,0,0,0,1.3-1.84c-.23-13.69.55-27.39-.45-41.07Z" transform="translate(-3.67 -26.86)"/><path class="ace46a9d-471c-4168-b820-a601258ff6e4" d="M237.71,165.17V161c-1.16-1.37-1.12-3-1.14-4.66.06-1.24,0-2.49.07-3.72.22-2.55-.86-4-3.24-5.07s-5.63-1.32-5.73-5c0-.27,0-.54,0-.82.4-2.6,3.06-4.06,3.39-6.69,1.06-3.69,1.76-7.61,6-9.27,1.41,1.23,1.49,2.9,1.49,4.59q0,25.92,0,51.86c0,1.09.21,2.26-.78,3.12a3.77,3.77,0,0,1-1.14-2.8q-.21-6.48-.11-13C236.71,168,236.4,166.37,237.71,165.17Z" transform="translate(-3.67 -26.86)"/><path class="b9bc00d2-f63d-4ad7-a6e9-41c6e416e13e" d="M145.56,142.51c3.48,3.63,4.63,8.64,7.48,12.65-1.32.34-1.43,1.87-2.47,2.49-5.82-3.09-12.27-5-17.49-9.23,0-3.08,0-6.15,0-9.22,1.81-1.44,3.36-.17,4.89.53C140.43,140.86,142.77,142.27,145.56,142.51Z" transform="translate(-3.67 -26.86)"/><path class="be4980fc-95e1-44a7-bedc-79d43fbbf2e2" d="M237,125.74c-2.91,2.49-3.48,6.49-6,9.27-6.38-5.9-10.51-13.53-15.55-20.45-.53-.72.26-1.2,1-1.34q8.8,4.89,17.6,9.79C235.29,123.67,236.75,124.09,237,125.74Z" transform="translate(-3.67 -26.86)"/><path class="b8179647-a6a9-4ba8-bb5e-6cc6358d0750" d="M237.74,182.76c0,.85,0,1.7,0,2.55-2.29,4.46-6.7,5.8-10.91,7.45-.28-.3-.69-.56-.72-1-.69-8.2-1.19-16.4.3-24.57a2,2,0,0,1,1.16-.74c1.49,0,2.16,1.1,2.74,2.15C232.89,173.28,236,177.65,237.74,182.76Z" transform="translate(-3.67 -26.86)"/><path class="f63fb33a-f835-4942-b030-c7ed5fcc8102" d="M208.4,203.72q0-34.78,0-69.56c2.92.57,3,3.09,3.6,5.24.36,19.62.09,39.24.14,58.86A6.68,6.68,0,0,1,211,202.2Z" transform="translate(-3.67 -26.86)"/><path class="bb28f41b-4148-4784-ae90-efee3f2f903e" d="M216,199.44c-1,.75-2,1.67-3.33,1.84-1.19-1.81-.38-3.8-.39-5.68q-.1-22.9,0-45.81c0-2-.4-4.24,1.5-5.8,2.17-.5,3,.86,3.61,2.57,0,15.66-.12,31.33,0,47C217.29,195.6,217.64,197.77,216,199.44Z" transform="translate(-3.67 -26.86)"/><path class="af877021-faf7-4b24-bd49-646950f4a7c5" d="M133.08,148.42c5.9,3,12.54,4.48,17.49,9.23-.63,2.94-2.57,5.15-4.2,7.53-4.58-2-9.19-3.82-13.29-6.7Z" transform="translate(-3.67 -26.86)"/><path class="f1d02a42-b770-4c26-9f23-5a51697e7dab" d="M215.12,144.22c-2.56.54-1.64,2.61-1.64,4.08q-.09,23,0,46a25.27,25.27,0,0,1-.85,7l-1.64.92-.06-63.84C214.19,139,215.16,141.24,215.12,144.22Z" transform="translate(-3.67 -26.86)"/><path class="e6f3f9e6-e02d-4775-a9e6-c2c816bff69f" d="M216,199.44c.91-5.85.23-11.73.4-17.6.34-11.42-.55-22.85.44-34.26,3.13.71,3.27,3.57,4.19,5.86-1.73,1.2-1.71,3-1.69,4.82.12,12.23.13,24.45.33,36.67,0,1.33-.87,2-1.14,3Z" transform="translate(-3.67 -26.86)"/><path class="ab567b6c-692d-4d1d-84fa-b85060769738" d="M145.56,142.51c-1.53,1.72-3,.51-4.5-.09-2.67-1.06-4.91-3.18-8-3.22,0-3.35-.11-6.69-.12-10,0-2.39.73-4.4,3.22-5.3Z" transform="translate(-3.67 -26.86)"/><path class="be338912-03dd-4bd5-8c5d-476891e00388" d="M133.08,158.48c4.8,1.49,9.51,3.17,13.29,6.7-1.51,2.9-2.68,6-5,8.4-2.67-1.82-6-2.57-8.26-5Z" transform="translate(-3.67 -26.86)"/><path class="b55d31f0-433c-46dc-a433-20c72bdee17c" d="M133.08,168.54c2.94,1.36,6.55,1.65,8.26,5-2.21,4.35-4.07,8.91-7.49,12.53C132,180.32,133.23,174.4,133.08,168.54Z" transform="translate(-3.67 -26.86)"/><path class="ad6bf28b-d97a-40df-af69-5ed3bf7487bd" d="M227.69,166.85c-1.44,1.37-.79,3.14-.81,4.73-.07,7.06,0,14.12,0,21.18-1,.42-1.17,1.89-2.51,1.78,0-9.46,0-18.92,0-28.38,0-1.47-.55-3.1.82-4.33C227.06,163,228.71,164.25,227.69,166.85Z" transform="translate(-3.67 -26.86)"/><path class="f83dad58-a52c-4409-93d2-d9251d7a5136" d="M221,153.44l-4.19-5.86c.13-1.46-1.2-2.2-1.67-3.36-1.12-2.15-2.14-4.38-4.2-5.86-.84-1.4-1.17-3.1-2.51-4.2-.85-1.39-1.17-3.09-2.51-4.19l-1.68-4.19c4.42,2,5.81,6.72,8.72,10.07,3.58,4.12,5.61,9.56,10.56,12.56,1,2,.1,3.28-1.68,4.2Z" transform="translate(-3.67 -26.86)"/><path class="ed7cc823-811b-4b0a-9d5c-1f49c97e3735" d="M227.67,142.52c1,2.55,3.64,3.3,5.59,3.78,4.25,1,5,3.51,4.5,7.18a20.49,20.49,0,0,0,0,2.48c-5.21.07-9-3.09-13-5.81a1.74,1.74,0,0,1-.43-2.58Q226,145,227.67,142.52Z" transform="translate(-3.67 -26.86)"/><path class="b4f884b4-d5e7-4e57-93e6-75d68bf6ac90" d="M224.33,147.57c0,2.31,2.06,2.87,3.48,3.66,3.19,1.77,6.59,3.17,9.91,4.73,0,1.68,0,3.36,0,5-5.76-.85-10.32-4.42-15.37-6.87-.34-.16-.35-1-.52-1.52l1.68-4.2Z" transform="translate(-3.67 -26.86)"/><path class="ba0806ad-d1a0-43b1-8de1-a2a2037e9e95" d="M227.69,166.85c-.17-2-2-3.18-2.51-5-.7-1.53-1.16-3,1.43-1.83,3.73,1.66,7.41,3.44,11.11,5.17v4.19c-3.5.78-5.95-2.32-9.2-2.5Z" transform="translate(-3.67 -26.86)"/><path class="e3866ae8-c7f6-4d72-94a8-14e2b62a31c2" d="M228.52,166.86c3.77-1.75,6.06,2,9.2,2.5q0,6.7,0,13.4A94.3,94.3,0,0,1,228.52,166.86Z" transform="translate(-3.67 -26.86)"/><polygon class="fcbf9a1c-9a24-4334-82fb-483a74414596" points="330.42 138.89 330.42 118.31 312.6 108.03 294.78 118.31 294.78 138.89 312.6 149.18 330.42 138.89"/><polygon class="ba6b0acf-0dc0-4045-84f7-1757cc39bf34" points="459.25 139.61 459.25 118.55 441.02 108.03 422.78 118.55 422.78 139.61 441.02 150.14 459.25 139.61"/><polygon class="afef94ce-a17c-4f74-9db4-579cfb442e67" points="453.42 136.03 453.42 122.69 441.88 116.03 430.33 122.69 430.33 136.03 441.88 142.69 453.42 136.03"/></svg>