<svg xmlns="http://www.w3.org/2000/svg" viewBox="0 0 725.54 115.76"><defs><style>.al{fill:#1d1d1b;}.bl{fill:#e74926;}</style></defs><path class="al" d="M99.85,4.65h4.24L127.61,40V4.65H132V47.07h-4.24L104.21,12V47.07H99.85Z" transform="translate(-5.08 -4.17)"/><path class="al" d="M142.7,46a4,4,0,0,1-1-2.94V4.65h28.48V8.53h-24V23.44h22.18v3.88H146.15V43.2h24v3.87H145.6A3.83,3.83,0,0,1,142.7,46Z" transform="translate(-5.08 -4.17)"/><path class="al" d="M183.78,46.14a5.45,5.45,0,0,1-1.33-3L175.24,4.65h4.42l6.61,36.61h.06L197,6.9h1.88a2.45,2.45,0,0,1,1.76.63,4.67,4.67,0,0,1,1.09,2l9.46,31.76h.06l6.6-36.61h4.42l-7.21,38.49a5.38,5.38,0,0,1-1.33,3,3.71,3.71,0,0,1-2.67.93h-1.81L198.93,12.9h-.06l-10.6,34.17h-1.82A3.71,3.71,0,0,1,183.78,46.14Z" transform="translate(-5.08 -4.17)"/><path class="al" d="M250.69,46.14a5.38,5.38,0,0,1-1.34-3L242.14,4.65h4.42l6.61,36.61h.06L263.9,6.9h1.88a2.44,2.44,0,0,1,1.75.63,4.57,4.57,0,0,1,1.09,2l9.46,31.76h.06l6.6-36.61h4.43L282,43.14a5.45,5.45,0,0,1-1.34,3,3.67,3.67,0,0,1-2.66.93h-1.82L265.84,12.9h-.06L255.17,47.07h-1.82A3.67,3.67,0,0,1,250.69,46.14Z" transform="translate(-5.08 -4.17)"/><path class="al" d="M296.68,4.65h4.49V47.07h-4.49Z" transform="translate(-5.08 -4.17)"/><path class="al" d="M311.47,4.65h4.24L339.22,40V4.65h4.37V47.07h-4.24L315.83,12V47.07h-4.36Z" transform="translate(-5.08 -4.17)"/><path class="al" d="M354.31,46a3.93,3.93,0,0,1-1-2.9V4.65h17.58a17.19,17.19,0,0,1,7.88,1.73A12.63,12.63,0,0,1,384,11.29a14.12,14.12,0,0,1,1.88,7.3V31.92q0,7.45-3.76,11.31t-11,3.84H357.22A3.93,3.93,0,0,1,354.31,46Zm16.67-3c3.43,0,6-.93,7.79-2.81s2.63-4.66,2.63-8.34V18.59a9.39,9.39,0,0,0-2.94-7.18,10.82,10.82,0,0,0-7.72-2.76h-13V43.07Z" transform="translate(-5.08 -4.17)"/><path class="al" d="M399.7,45.68a12.94,12.94,0,0,1-5-5.33,17.18,17.18,0,0,1-1.78-8v-13a17.18,17.18,0,0,1,1.78-8,12.94,12.94,0,0,1,5-5.33,14.53,14.53,0,0,1,7.46-1.88h6.42A14.56,14.56,0,0,1,421,6.05a12.86,12.86,0,0,1,5,5.33,17.06,17.06,0,0,1,1.79,8v13a16.88,16.88,0,0,1-1.79,8,13,13,0,0,1-5,5.33,14.36,14.36,0,0,1-7.42,1.91H407.1A14.41,14.41,0,0,1,399.7,45.68Zm13.76-2.12a9.08,9.08,0,0,0,7.15-3.09,11.82,11.82,0,0,0,2.73-8.12v-13a11.82,11.82,0,0,0-2.73-8.12,9.08,9.08,0,0,0-7.15-3.09h-6.18a9.08,9.08,0,0,0-7.15,3.09,11.82,11.82,0,0,0-2.73,8.12v13a11.9,11.9,0,0,0,2.7,8.12,9,9,0,0,0,7.12,3.09Z" transform="translate(-5.08 -4.17)"/><path class="al" d="M441.7,46.14a5.38,5.38,0,0,1-1.33-3L433.16,4.65h4.42l6.61,36.61h.06L454.91,6.9h1.88a2.46,2.46,0,0,1,1.76.63,4.67,4.67,0,0,1,1.09,2l9.45,31.76h.06l6.61-36.61h4.42L473,43.14a5.45,5.45,0,0,1-1.33,3,3.71,3.71,0,0,1-2.67.93h-1.82L456.85,12.9h-.06l-10.6,34.17h-1.82A3.71,3.71,0,0,1,441.7,46.14Z" transform="translate(-5.08 -4.17)"/><path class="al" d="M143.47,114l-9.63,5.57h-34V61.4h34L143.47,67ZM108.18,68.87V112h27V68.87Z" transform="translate(-5.08 -4.17)"/><path class="al" d="M166.71,93.36V112h24.83v7.48H158.41V61.4h33.13v7.47H166.71v17h19.85v7.47Z" transform="translate(-5.08 -4.17)"/><path class="al" d="M249.15,61.4,228.4,119.52H218.1L197.35,61.4h8.38L223.17,111h.16L240.77,61.4Z" transform="translate(-5.08 -4.17)"/><path class="al" d="M266.59,93.36V112h24.82v7.48H258.29V61.4h33.12v7.47H266.59v17h19.84v7.47Z" transform="translate(-5.08 -4.17)"/><path class="al" d="M303,119.52V61.4h8.31V112h21.5v7.48Z" transform="translate(-5.08 -4.17)"/><path class="al" d="M386.39,114.37l-9.63,5.56H352.43l-9.63-5.56V66.55L352.43,61h24.33l9.63,5.57ZM351.1,68.46v44h27v-44Z" transform="translate(-5.08 -4.17)"/><path class="al" d="M401.33,119.52V61.4h29L439.94,67V91.62l-9.63,5.56H409.63v22.34Zm8.3-50.65V89.71h22V68.87Z" transform="translate(-5.08 -4.17)"/><path class="al" d="M503.87,119.52V72.19h-.17l-17.1,47.33h-8.31l-17-47.33h-.17v47.33h-7.89V61.4h11.71l17.43,48.48h.17L500.05,61.4h11.7v58.12Z" transform="translate(-5.08 -4.17)"/><path class="al" d="M535,93.36V112h24.82v7.48H526.7V61.4h33.12v7.47H535v17h19.84v7.47Z" transform="translate(-5.08 -4.17)"/><path class="al" d="M579.75,75.6v43.92h-8.3V61.4H579l30.06,43.92h.16V61.4h8.3v58.12H610L579.92,75.6Z" transform="translate(-5.08 -4.17)"/><path class="al" d="M652.31,68.87v50.65H644V68.87H627.49V61.4h41.34v7.47Z" transform="translate(-5.08 -4.17)"/><path class="al" d="M730.61,110.78v7H676.48v-7Z" transform="translate(-5.08 -4.17)"/><path class="bl" d="M73,4.79H83.82L43,119.52l-10.93-.07Z" transform="translate(-5.08 -4.17)"/><path class="bl" d="M45.93,4.79H56.78L16,119.52l-10.92-.07Z" transform="translate(-5.08 -4.17)"/></svg>