<svg id="a4ba654b-70c9-406a-902e-f00037281bbd" data-name="Layer 6" xmlns="http://www.w3.org/2000/svg" viewBox="0 0 431.86 480.44"><defs><style>.ef6f661d-5db6-4ac8-898e-45de573c4de4{fill:#60d8f8;}.fec98742-e436-4c94-a837-c9f589e120cd{fill:#20232a;}</style></defs><path class="ef6f661d-5db6-4ac8-898e-45de573c4de4" d="M375.56,71.45a225.48,225.48,0,0,1-5.87,49c-.57,2.56-.14,3.48,2.53,4.33,20.92,6.66,41,15.06,59,28,7.8,5.61,14.9,12,20.41,19.93,11,15.88,10.9,32.11-.39,47.8-7.87,10.94-18.34,18.93-29.73,25.84-15.32,9.3-31.76,16.09-48.83,21.4-2.62.82-3.05,1.84-2.47,4.4,4.42,19.56,6.85,39.34,5.67,59.44-.69,11.81-2.74,23.36-8,34.1-8.41,17-23.55,24.86-42.35,22.24-17.32-2.42-32.44-10.07-46.9-19.33a231.06,231.06,0,0,1-32.31-25.33c-1.67-1.55-2.56-1.43-4.15,0-15,13.86-31.11,26.26-49.5,35.38-9.63,4.78-19.62,8.58-30.42,9.6-21.2,2-35.66-6.9-43.57-26.64-4.17-10.43-5.84-21.36-6.31-32.49-.8-19.21,1.49-38.14,5.72-56.84.63-2.75.08-3.72-2.61-4.56-18.57-5.74-36.4-13.18-52.82-23.71-8.74-5.6-16.82-12-23.44-20.05-15.3-18.65-14.95-38.34,1-56.49C50.79,155.4,64.09,147,78.27,139.74a235.63,235.63,0,0,1,37.5-15c2.18-.67,2.48-1.47,2-3.63-3.87-17.57-6.39-35.31-6-53.36.27-13.39,1.91-26.54,7.46-38.92,9-20,25.55-27.09,45.78-23.75,18.7,3.08,34.76,12.2,50.1,22.78a230.76,230.76,0,0,1,26.55,21.45c1.59,1.48,2.47,1.54,4.11,0,14.79-13.66,30.64-25.89,48.71-35,10-5,20.29-9.06,31.47-10.08,21.82-2,36.74,8.13,44.24,29.6C374.42,46,375.6,58.65,375.56,71.45ZM243.44,266.7c12.46.16,24.9-.51,37.32-1.36a5.25,5.25,0,0,0,4.47-2.51,488.4,488.4,0,0,0,36.88-64.43,4.39,4.39,0,0,0,0-4.26A495.78,495.78,0,0,0,287,132.7c-2.32-3.48-4.64-5.18-9.07-5.47a512.73,512.73,0,0,0-72.06.38,3.68,3.68,0,0,0-3,1.93,478.69,478.69,0,0,0-37.35,65.15,3.94,3.94,0,0,0,0,3.77,472.19,472.19,0,0,0,37.6,65,3.85,3.85,0,0,0,3.28,1.88C218.74,266.13,231.07,266.86,243.44,266.7Zm196.85-70.52a21.27,21.27,0,0,0-3.89-11.09,56.71,56.71,0,0,0-13.16-13.74c-17.16-13.3-36.91-21.35-57.32-28.07-1.91-.62-2,.61-2.38,1.85a413.25,413.25,0,0,1-18.14,49.29,3.69,3.69,0,0,0-.11,3.26A397.14,397.14,0,0,1,363.9,248c.4,1.35.86,1.73,2.38,1.24,15.06-4.9,29.75-10.67,43.4-18.77,10.09-6,19.63-12.69,26.43-22.55A21.49,21.49,0,0,0,440.29,196.18ZM356.1,70.87A124.7,124.7,0,0,0,355,54.41c-1.16-8-2.94-15.94-7.56-22.85a17,17,0,0,0-13.81-7.79c-9.56-.64-18.27,2.36-26.73,6.26-18,8.29-33.3,20.43-47.91,33.57-1.55,1.4-.57,2,.26,2.91a422.58,422.58,0,0,1,34,41,3.3,3.3,0,0,0,2.53,1.58,413.16,413.16,0,0,1,52.41,9c1.65.4,2.1,0,2.45-1.58A228,228,0,0,0,356.1,70.87Zm-224,249.88c0,3.86-.25,7.74,0,11.57.68,8.68,2.17,17.19,6,25.15s10.22,12,19.2,11.62c8.44-.37,16.27-3,23.81-6.56,17.57-8.23,32.66-20,47-32.9,1.59-1.43,1.69-2.12.17-3.72a356.61,356.61,0,0,1-30.84-36.82c-2.67-3.67-5.41-5.67-10.16-6.14a345.67,345.67,0,0,1-47.55-8.26c-1.53-.37-2.29-.36-2.71,1.61C134,291,131.85,305.73,132.09,320.75ZM47.44,196.28a21.87,21.87,0,0,0,4,11.36A59.57,59.57,0,0,0,66,222.42c16.88,12.62,36.05,20.52,55.93,27,1.87.61,1.83-.45,2.17-1.58a409.29,409.29,0,0,1,18.23-49.54,4,4,0,0,0,0-3.53A393.61,393.61,0,0,1,123.87,145c-.51-1.73-1.12-1.93-2.81-1.39a219.81,219.81,0,0,0-38.34,16c-10.79,5.89-21,12.55-28.94,22.24C50.31,186,47.68,190.66,47.44,196.28Zm308.9,125.09c.06-15.33-2.27-30.36-5.43-45.3-.37-1.74-1-2-2.71-1.54a382.14,382.14,0,0,1-51.83,8.89,4.25,4.25,0,0,0-3.25,2A396,396,0,0,1,259.54,326c-1.19,1.25-1.3,1.88.08,3.12,10.71,9.64,21.92,18.61,34.29,26.05,10.2,6.13,20.82,11.27,32.77,13.14,12.14,1.9,19.15-1.78,24.16-12.91.32-.7.57-1.43.84-2.15C355.52,343,356.31,332.22,356.34,321.37ZM131.4,68.59c0,18,2.31,33,5.45,47.82.35,1.69,1,2.17,2.69,1.73a385.93,385.93,0,0,1,52.07-9,3.65,3.65,0,0,0,2.82-1.64,400.47,400.47,0,0,1,33.89-41c1.14-1.21,1.1-1.83-.12-2.93-11-10-22.65-19.23-35.5-26.79-10.25-6-20.89-11.28-32.94-12.56C148.13,23,142.18,26.4,137.48,36.09A36.11,36.11,0,0,0,136,39.55C132.24,49.85,131.44,60.58,131.4,68.59Zm136.65,38.34c-7.57-9.58-15-18.18-22.77-26.48-1.53-1.63-2.17-1.21-3.44.16-7.21,7.8-14.2,15.78-20.69,24.19-.43.55-1.29,1-.84,2.06C236,106.2,251.65,106.19,268.05,106.93ZM219.63,285.7c7.62,9.78,15.29,18.53,23.26,27,1.33,1.42,1.86.42,2.65-.41Q257,300.24,267.17,287.1c.28-.37.71-.69.39-1.33A479.15,479.15,0,0,1,219.63,285.7ZM333.28,220a480.22,480.22,0,0,1-24.1,42l7.9-1.26c8.85-1.44,17.62-3.27,26.35-5.3,1-.22,2.18-.2,1.65-1.93C341.62,242.37,337.92,231.28,333.28,220ZM154.39,172.58c7.39-14.31,15.15-28,23.69-41.3-.47-.21-.65-.37-.79-.35-11.37,1.55-22.61,3.8-33.78,6.39-1.37.32-1.1,1-.84,1.88C146.06,150.34,149.78,161.36,154.39,172.58Zm0,47.72c-4.43,11.26-8.18,22.15-11.47,33.2-.57,1.89.55,1.84,1.68,2.07,6.12,1.29,12.21,2.66,18.35,3.85,5,1,10.06,1.7,15.62,2.63A464,464,0,0,1,154.4,220.3Zm178.89-47.93c4.38-11.14,8-21.89,11.37-32.75.59-1.9-.09-2.26-1.66-2.58-4.81-1-9.59-2.14-14.41-3.06-6.21-1.18-12.44-2.19-19.53-3.42A464.09,464.09,0,0,1,333.29,172.37Z" transform="translate(-27.96 -4)"/><path class="ef6f661d-5db6-4ac8-898e-45de573c4de4" d="M203.58,196.41A40.2,40.2,0,1,1,244,236.53,40.32,40.32,0,0,1,203.58,196.41Z" transform="translate(-27.96 -4)"/><path class="fec98742-e436-4c94-a837-c9f589e120cd" d="M135.25,423.54h32q7.83,0,12.6,4.22a14.09,14.09,0,0,1,4.77,11.09v6a12.44,12.44,0,0,1-2.53,7.79,15.62,15.62,0,0,1-7.36,5v.17A13.15,13.15,0,0,1,178.9,462a32.27,32.27,0,0,1,2.8,6.45l4.81,15.31H174.22l-4.56-14.28a12,12,0,0,0-3.1-5.5,7,7,0,0,0-4.9-1.81H147.12v21.59H135.25ZM165,451.93a8,8,0,0,0,5.68-1.94,6.57,6.57,0,0,0,2.06-5v-5.59a5.33,5.33,0,0,0-1.54-4,5.7,5.7,0,0,0-4.13-1.51h-20v18.07Z" transform="translate(-27.96 -4)"/><path class="fec98742-e436-4c94-a837-c9f589e120cd" d="M200.32,482.42a15.54,15.54,0,0,1-6.5-5.68,15.37,15.37,0,0,1-2.32-8.39V457.26a17.15,17.15,0,0,1,2.32-8.95,16,16,0,0,1,6.5-6,20.68,20.68,0,0,1,9.59-2.15h6.88q8.25,0,13.24,4.65t5,12.38v9.12H203.2v2.06a6,6,0,0,0,1.81,4.56,6.78,6.78,0,0,0,4.9,1.72h6.71a8.15,8.15,0,0,0,4.86-1.33,4.12,4.12,0,0,0,1.85-3.48h11.52a13.12,13.12,0,0,1-2.32,7.65,14.77,14.77,0,0,1-6.5,5.16,24,24,0,0,1-9.59,1.81h-6.53A21.84,21.84,0,0,1,200.32,482.42Zm23.18-24.56v-.69a7.74,7.74,0,0,0-1.81-5.37,6.12,6.12,0,0,0-4.81-2h-7a6.29,6.29,0,0,0-5,2.15A8.26,8.26,0,0,0,203,457.6v.26Z" transform="translate(-27.96 -4)"/><path class="fec98742-e436-4c94-a837-c9f589e120cd" d="M245.69,481.08a10.82,10.82,0,0,1-4.13-8.86V469a10.48,10.48,0,0,1,4.3-8.73q4.3-3.3,11.35-3.31h5.25a21.29,21.29,0,0,1,4.81.6,22.69,22.69,0,0,1,4.73,1.64v-4.48a4.57,4.57,0,0,0-1.41-3.48,5.26,5.26,0,0,0-3.75-1.33h-7.39a6.16,6.16,0,0,0-3.87,1.12,3.57,3.57,0,0,0-1.46,3H242.76a12.52,12.52,0,0,1,4.6-10.11q4.6-3.83,12.09-3.83h7.39q7.57,0,12.22,4a13.35,13.35,0,0,1,4.64,10.62v29H272.87v-5.16a15.5,15.5,0,0,1-5.08,4.26,12.66,12.66,0,0,1-5.93,1.59h-5.34Q249.82,484.44,245.69,481.08Zm17-5.59a10.09,10.09,0,0,0,5.67-1.63,9.29,9.29,0,0,0,3.61-4.39V468a10.47,10.47,0,0,0-3.82-1.63,21.38,21.38,0,0,0-5.21-.61h-5.41a5.21,5.21,0,0,0-3.36,1,3.33,3.33,0,0,0-1.29,2.75v2.23a3.16,3.16,0,0,0,1.42,2.67,6.2,6.2,0,0,0,3.74,1Z" transform="translate(-27.96 -4)"/><path class="fec98742-e436-4c94-a837-c9f589e120cd" d="M300.17,482.29a15.64,15.64,0,0,1-6.45-6,17.29,17.29,0,0,1-2.28-8.95V457.26a17.32,17.32,0,0,1,2.28-8.95,15.72,15.72,0,0,1,6.41-6,20.4,20.4,0,0,1,9.55-2.15h6.79a19.4,19.4,0,0,1,9.12,2.07,14.72,14.72,0,0,1,6.1,5.8,17,17,0,0,1,2.15,8.65H322.23a6.75,6.75,0,0,0-1.59-4.69,5.33,5.33,0,0,0-4.17-1.76h-6.62A6,6,0,0,0,305,452.4a8.53,8.53,0,0,0-1.85,5.72v8.34a8.45,8.45,0,0,0,1.89,5.72,6.18,6.18,0,0,0,4.9,2.19h6.63a5.52,5.52,0,0,0,4.43-2,7.89,7.89,0,0,0,1.67-5.25h11.61q0,7.83-4.86,12.56t-12.85,4.73h-6.8A20.68,20.68,0,0,1,300.17,482.29Z" transform="translate(-27.96 -4)"/><path class="fec98742-e436-4c94-a837-c9f589e120cd" d="M348.64,480.31q-3.52-3.44-3.53-10.67V450.81h-7.57v-10h7.92v-13h11.35v13H368v10H356.81v18.32a5.58,5.58,0,0,0,.9,3.52,3.47,3.47,0,0,0,2.88,1.12H368v10h-8.26Q352.17,483.75,348.64,480.31Z" transform="translate(-27.96 -4)"/></svg>