<svg id="bac47946-aaa5-43b2-bbcb-76ec2ac9bb1d" data-name="Layer 8" xmlns="http://www.w3.org/2000/svg" viewBox="0 0 470 462.29"><defs><style>.ec2c4634-bc73-4c44-b7b0-4f43161d39fa{fill:#f6554e;}.e531c643-ce22-4f83-9f77-713d8e2f6502{fill:#222;}</style></defs><path class="ec2c4634-bc73-4c44-b7b0-4f43161d39fa" d="M358,147.82v67.23c-5-2.49-6.36,2.6-8.64,4.64q-65.46,58.4-130.58,117.17c-24.49,22-49,44-76,68.14,0-23.55.27-44-.16-64.42a31.3,31.3,0,0,1,5-18c15.21-24.79,29.89-49.92,45.6-76.32-27.32,2.79-52.41,10.08-78.36,10.2V215.05c7.61-1.5,11.46-8.14,16.75-12.64Q233.3,115.86,334.54,28.82c3.12-2.69,9.67-3.57,7.94-10.29h5.18c14.81,49.94-3.86,91.8-35.21,131.53C330.05,151.28,343.84,145.89,358,147.82ZM155.82,374.68c2.91-1.45,3.77-1.67,4.35-2.2q89.31-80.43,178.56-160.93c2.51-2.26,5.38-4.31,5.35-8.35-.08-11,0-22.08,0-34.27-3.22,1.34-4.56,1.53-5.4,2.29q-89.1,80.55-178.19,161.12c-3.14,2.83-4.74,5.81-4.69,10C155.9,352.61,155.82,362.86,155.82,374.68Zm65.09-172.77c-15.15,2.18-29.08,4.11-43,6.19q-17.79,2.67-35.54,5.63c-14.14,2.36-10.9,13.52-10.39,22.33.63,11,9.15,4.81,13.71,4.38,12.34-1.16,24.56-5.36,36.83-5.34C205.13,235.12,212.65,219.68,220.91,201.91ZM337.51,53.44c-22.76,36.48-43.58,69.86-65,104.26,14.06,1.11,24.21-.61,30.8-13.93a327.85,327.85,0,0,1,26.38-44.12C339.23,86.18,338.76,72,337.51,53.44Z" transform="translate(-14 -18.53)"/><path class="e531c643-ce22-4f83-9f77-713d8e2f6502" d="M250,460.57H216.9a9.2,9.2,0,0,0,3.35,8c4.05,3.69,9,4.11,14.1,3.31,3.6-.57,7.14-1.56,11.11-2.46.71,2.4,1.47,4.95,2.3,7.73-9.18,3.29-18.21,5.31-27.49,1.9-7.43-2.72-11.18-8.65-12.59-16.14-1.67-8.85-.2-17.07,6.67-23.33s15.39-6.9,23.92-3.86c7.84,2.78,10.91,9.32,11.7,17.09C250.22,455.25,250,457.75,250,460.57Zm-33-8.14c.64.06,1.28.16,1.92.17h21.93c.23-5.41-3.52-9.05-9.54-9.54C223.68,442.44,217.79,446.25,217,452.43Z" transform="translate(-14 -18.53)"/><path class="e531c643-ce22-4f83-9f77-713d8e2f6502" d="M71.34,460.59c-.16,5.24,3.47,9.55,8.87,11s10.75.16,16-1.25c1.11-.3,2.21-.65,3.65-1.08l2.36,7.85a45.42,45.42,0,0,1-19.58,3.61c-8.85-.4-15.66-4.23-19-12.64-3.75-9.54-3.25-18.94,3.64-27,8.11-9.46,25.44-9.32,32.72-.06,4.23,5.37,4.82,11.7,4.58,18.22-.06,1.75-1.36,1.36-2.36,1.36q-14,0-28.05,0Zm24.09-8.13c0-5.53-4-9.16-10.18-9.41-7.64-.31-13.24,3.49-13.75,9.41Z" transform="translate(-14 -18.53)"/><path class="e531c643-ce22-4f83-9f77-713d8e2f6502" d="M384.61,469.24c.79,2.67,1.53,5.18,2.33,7.92-9,3.26-17.87,5.19-27,2.09-7.26-2.45-11.22-8.05-12.86-15.35-1.95-8.71-.82-16.9,5.58-23.45,7-7.16,15.81-7.92,24.81-4.71,8.51,3,11.31,10.29,11.84,18.59.4,6.25.27,6.26-5.94,6.26H356.18c-.43,4.05,2,8,6.07,9.94,5.57,2.71,11.23,1.64,16.87.26C380.89,470.36,382.62,469.81,384.61,469.24Zm-4.53-16.81c.26-5.15-3.55-8.86-9.54-9.37-7.64-.64-13.7,3.26-14.3,9.37Z" transform="translate(-14 -18.53)"/><path class="e531c643-ce22-4f83-9f77-713d8e2f6502" d="M397,475.79l3.55-7.41c4.26,1.18,8.28,2.53,12.4,3.35a30.88,30.88,0,0,0,8.21.3,7.87,7.87,0,0,0,4.55-1.72,5.89,5.89,0,0,0,1.7-4.3,4.36,4.36,0,0,0-2.83-2.89c-4-1-8.19-1.4-12.28-2.16a39.48,39.48,0,0,1-6.27-1.6c-5.28-1.92-8-5.8-8.14-11.38-.17-5.3,1.95-9.44,6.76-11.82a23.93,23.93,0,0,1,7.33-2.27c7.57-1,14.88.67,22.46,2.56l-2.73,8.67c-4-.8-7.91-1.81-11.83-2.29a42.22,42.22,0,0,0-8.17.23,3.7,3.7,0,0,0-2.44,1.1c-.9,1.16-2.05,2.67-1.92,3.91.12,1.06,1.76,2.52,2.95,2.79,4.21,1,8.52,1.47,12.79,2.2a28.23,28.23,0,0,1,3.63.88c6.68,2.11,9.85,6.1,9.93,12.41s-3.66,11.23-10.12,13.24C418.83,482,404.11,480.16,397,475.79Z" transform="translate(-14 -18.53)"/><path class="e531c643-ce22-4f83-9f77-713d8e2f6502" d="M51.57,436.36l-2.7,8.45c-5.66-.81-11-1.77-16.33-2.23a10.79,10.79,0,0,0-5.91,1.49A5.1,5.1,0,0,0,24.42,448c.08,1.08,1.85,2.6,3.11,2.9,4.13,1,8.36,1.44,12.54,2.15a28,28,0,0,1,3.64.87c6.89,2.16,10.2,6.45,10,12.86-.23,6.58-4,11.53-10.73,13-10,2.2-19.48.43-29-3.72l3.73-7.94a42.59,42.59,0,0,0,5.91,2.07c4.31.83,8.66,1.53,13,2a12.46,12.46,0,0,0,4.84-1,4.55,4.55,0,0,0,3.19-4.84c-.09-2.39-1.95-3.23-3.88-3.59-3.76-.7-7.57-1.13-11.35-1.77a34.9,34.9,0,0,1-5.56-1.33c-6.08-2.11-8.83-5.9-8.94-12.07-.11-5.75,3-10.18,8.7-12.41s11.8-1.73,17.76-.85C44.7,434.8,47.93,435.62,51.57,436.36Z" transform="translate(-14 -18.53)"/><path class="e531c643-ce22-4f83-9f77-713d8e2f6502" d="M447.88,468.39c4.47,1.23,8.51,2.57,12.65,3.4a29.51,29.51,0,0,0,8,.25,7.91,7.91,0,0,0,4.55-1.74,5.87,5.87,0,0,0,1.7-4.31,4.36,4.36,0,0,0-2.85-2.88c-4-1-8.19-1.44-12.29-2.14a36.1,36.1,0,0,1-3.91-.8c-7.27-2.09-10.38-5.92-10.41-12.74,0-6.43,3.5-10.92,10.45-12.82,8.81-2.42,17.29-.19,26.08,1.81l-2.71,8.38c-5.71-.8-11.11-1.75-16.55-2.22a10,10,0,0,0-5.66,1.49,5.15,5.15,0,0,0-2.22,3.92c.08,1.08,1.85,2.6,3.12,2.9,4.12,1,8.36,1.44,12.55,2.15a28.38,28.38,0,0,1,3.64.88c6.79,2.12,10.08,6.28,10,12.62a13,13,0,0,1-10.33,13.06c-10.11,2.53-19.79.61-29.44-3.55C445.53,473.33,446.72,470.81,447.88,468.39Z" transform="translate(-14 -18.53)"/><path class="e531c643-ce22-4f83-9f77-713d8e2f6502" d="M310.93,479.76V425.11H296.55v-8h23.93v53.38h18.58v9.29Z" transform="translate(-14 -18.53)"/><path class="e531c643-ce22-4f83-9f77-713d8e2f6502" d="M179.64,470q2.33-7,4.66-14.07c2.11-6.38,4.25-12.76,6.27-19.17.48-1.52,1.2-2.14,2.83-2.06,2.38.13,4.77,0,7.55,0-1.49,4.68-2.83,8.92-4.18,13.16-3.18,10-6.39,19.92-9.51,29.91-.49,1.58-1.11,2.28-2.91,2.19-3.5-.17-7-.11-10.51,0a2,2,0,0,1-2.29-1.62q-6.37-21.11-12.83-42.17a10.43,10.43,0,0,1-.18-1.45c3.07,0,6-.14,8.85.1.66.06,1.51,1.32,1.77,2.18,3.05,10.1,6,20.22,9,30.33.26.87.56,1.73.84,2.59Z" transform="translate(-14 -18.53)"/><path class="e531c643-ce22-4f83-9f77-713d8e2f6502" d="M261.71,434.73c2.64,0,5.05-.09,7.44.08.5,0,1.24.94,1.34,1.54.3,1.68.32,3.41.66,5.26,2.57-6,7.42-7.23,13.2-6.92,3.65.19,7.31,0,11.1,0v9.35c-4.42,0-8.76.29-13.05-.07a9.82,9.82,0,0,0-10.86,10.65c.44,8.29.11,16.62.11,25.11h-9.94Z" transform="translate(-14 -18.53)"/><path class="e531c643-ce22-4f83-9f77-713d8e2f6502" d="M150,434.72v9.35c-4.78,0-9.5-.13-14.21.07a12.37,12.37,0,0,0-5.41,1.45,7.87,7.87,0,0,0-4.22,7.39c.11,8,0,15.95,0,23.93v2.86h-9.94c0-.72-.17-1.5-.17-2.29,0-13.37,0-26.75,0-40.13,0-2,.52-2.71,2.64-2.68,6.15.1,6.15,0,6.6,5.93a3.57,3.57,0,0,0,.18.66c.21,0,.46,0,.49,0,2.29-4.92,6.24-6.78,11.54-6.54C141.53,434.87,145.61,434.72,150,434.72Z" transform="translate(-14 -18.53)"/></svg>