<svg id="ecc5bc77-83d9-4f37-9ff0-e9668ed6a6f7" data-name="Layer 1" xmlns="http://www.w3.org/2000/svg" xmlns:xlink="http://www.w3.org/1999/xlink" viewBox="0 0 490.35 242.85"><defs><style>.b4283cec-08d1-4d3a-bcfb-eed6aa6168a6{fill:#232323;}.fc49ccfa-d7a3-4bf0-b32d-963e681ebeea{clip-path:url(#b81de667-f955-4eb4-8a57-a18438acc38b);}.e2ff002b-2635-48d9-a640-fc17324556fa{clip-path:url(#b5b0fdb5-7f87-4b1f-b3af-6131f287b455);}</style><clipPath id="b81de667-f955-4eb4-8a57-a18438acc38b" transform="translate(-4.96 -126.15)"><path class="b4283cec-08d1-4d3a-bcfb-eed6aa6168a6" d="M315.08,155.42a215.23,215.23,0,0,0-56.83-22.6,212.43,212.43,0,0,0-61.82-5.45,208.87,208.87,0,0,0-59.73,12.4,203.77,203.77,0,0,0-51.12,27.61c-3.78,2.77-7.38,5.71-10.88,8.66s-6.82,6.05-10,9.16l-2.36,2.37-1.18,1.17L60,190l-2.27,2.39-2.2,2.43L54.43,196l-1.06,1.23c-.7.82-1.41,1.63-2.11,2.44s-1.35,1.66-2,2.48l-1,1.23-1,1.26L45.3,207.1l-1.87,2.51-.93,1.25-.9,1.27c-.59.84-1.18,1.68-1.78,2.51-2.3,3.38-4.51,6.74-6.54,10.13A195.36,195.36,0,0,0,10,282.14c-1.3,5.68-2.28,11-3,16-.19,1.24-.32,2.47-.48,3.66-.07.59-.15,1.18-.22,1.76s-.12,1.17-.18,1.74c-.11,1.14-.22,2.25-.32,3.34s-.17,2.15-.24,3.19A183.38,183.38,0,0,0,5.17,331c0,2.21.17,3.89.21,5l.09,1.72L5.61,336c.1-1.13.18-2.81.43-5a181,181,0,0,1,2.82-18.76c.2-1,.42-2,.63-3.07l.75-3.2c.12-.55.25-1.1.38-1.66s.3-1.12.44-1.69c.31-1.13.59-2.29.92-3.47,1.3-4.71,2.92-9.74,4.87-15a184.48,184.48,0,0,1,16.5-33.58A179.79,179.79,0,0,1,45.6,233.32c2.26-2.87,4.69-5.67,7.18-8.48l1.92-2.07,1-1,1-1c.67-.68,1.33-1.36,2-2l2.06-2,1-1,1.06-1,2.12-2,2.18-1.95,1.1-1,1.12-1,2.25-1.91,2.3-1.87L75,204l1.18-.91,2.38-1.83c3.22-2.39,6.51-4.73,9.92-6.94S95.4,190,99,188a175.71,175.71,0,0,1,46.82-17.95,173.91,173.91,0,0,1,50.6-3.8A169.85,169.85,0,0,1,244.94,177a164.64,164.64,0,0,1,33.65,17.59L323,160.22C320.42,158.57,317.79,157,315.08,155.42Z"/></clipPath><clipPath id="b5b0fdb5-7f87-4b1f-b3af-6131f287b455" transform="translate(-4.96 -126.15)"><path class="b4283cec-08d1-4d3a-bcfb-eed6aa6168a6" d="M348.94,329.81c0,.13,0,.23,0,.35l0,.66q0,.66-.06,1.23c-.21,4.05-.32,6.21-.32,6.21l77.77-1s-.21-2.53-.58-7.27c-.07-.71-.13-1.46-.2-2.26,0-.39-.07-.8-.11-1.21l-.06-.63c0-.2,0-.39-.07-.6-.19-1.6-.4-3.36-.62-5.26s-.55-3.92-.89-6.08c-.18-1.08-.37-2.19-.56-3.34q-.15-.86-.3-1.74c-.11-.58-.23-1.18-.34-1.78l-.73-3.71c-.26-1.26-.56-2.55-.85-3.88-.15-.66-.3-1.32-.45-2s-.33-1.35-.5-2c-.35-1.37-.68-2.78-1.07-4.2-1.5-5.7-3.38-11.79-5.66-18.18a223.24,223.24,0,0,0-19.5-40.84,216.42,216.42,0,0,0-14.58-21.1c-2.7-3.5-5.59-6.93-8.57-10.36l-2.29-2.54L367.18,197,366,195.72l-2.38-2.51-2.46-2.48-1.23-1.24-1.26-1.22-2.55-2.44-2.61-2.4-1.31-1.2-1.34-1.18-2.71-2.36-2.77-2.3L344,175.24l-1.42-1.13-2.85-2.25L337,169.8l-30.65,48.53.17.18,1.8,2,1.75,2,.87,1,.84,1,1.67,2,1.62,2,.8,1,.77,1,1.54,2c.5.68,1,1.37,1.48,2l.74,1,.7,1,1.41,2c1.81,2.76,3.56,5.49,5.15,8.24a156.46,156.46,0,0,1,18,46.31c1,4.56,1.69,8.85,2.18,12.83.14,1,.22,2,.33,2.93.06.47.11.95.16,1.41s.08.93.11,1.39c.08.91.15,1.8.23,2.67s.1,1.73.14,2.55c0,.42.05.82.08,1.22l0,1.2c0,.78.06,1.54.08,2.27,0,1.47,0,2.85,0,4.14s0,2.47-.06,3.55Z"/></clipPath></defs><polygon class="b4283cec-08d1-4d3a-bcfb-eed6aa6168a6" points="369.01 47.05 446.01 49.38 369.01 51.72 369.01 47.05"/><polygon class="b4283cec-08d1-4d3a-bcfb-eed6aa6168a6" points="413.35 106.86 490.35 109.19 413.35 111.52 413.35 106.86"/><polygon class="b4283cec-08d1-4d3a-bcfb-eed6aa6168a6" points="393.12 75.32 479.18 77.65 393.12 79.98 393.12 75.32"/><path class="b4283cec-08d1-4d3a-bcfb-eed6aa6168a6" d="M315.08,155.42a215.23,215.23,0,0,0-56.83-22.6,212.43,212.43,0,0,0-61.82-5.45,208.87,208.87,0,0,0-59.73,12.4,203.77,203.77,0,0,0-51.12,27.61c-3.78,2.77-7.38,5.71-10.88,8.66s-6.82,6.05-10,9.16l-2.36,2.37-1.18,1.17L60,190l-2.27,2.39-2.2,2.43L54.43,196l-1.06,1.23c-.7.82-1.41,1.63-2.11,2.44s-1.35,1.66-2,2.48l-1,1.23-1,1.26L45.3,207.1l-1.87,2.51-.93,1.25-.9,1.27c-.59.84-1.18,1.68-1.78,2.51-2.3,3.38-4.51,6.74-6.54,10.13A195.36,195.36,0,0,0,10,282.14c-1.3,5.68-2.28,11-3,16-.19,1.24-.32,2.47-.48,3.66-.07.59-.15,1.18-.22,1.76s-.12,1.17-.18,1.74c-.11,1.14-.22,2.25-.32,3.34s-.17,2.15-.24,3.19A183.38,183.38,0,0,0,5.17,331c0,2.21.17,3.89.21,5l.09,1.72L5.61,336c.1-1.13.18-2.81.43-5a181,181,0,0,1,2.82-18.76c.2-1,.42-2,.63-3.07l.75-3.2c.12-.55.25-1.1.38-1.66s.3-1.12.44-1.69c.31-1.13.59-2.29.92-3.47,1.3-4.71,2.92-9.74,4.87-15a184.48,184.48,0,0,1,16.5-33.58A179.79,179.79,0,0,1,45.6,233.32c2.26-2.87,4.69-5.67,7.18-8.48l1.92-2.07,1-1,1-1c.67-.68,1.33-1.36,2-2l2.06-2,1-1,1.06-1,2.12-2,2.18-1.95,1.1-1,1.12-1,2.25-1.91,2.3-1.87L75,204l1.18-.91,2.38-1.83c3.22-2.39,6.51-4.73,9.92-6.94S95.4,190,99,188a175.71,175.71,0,0,1,46.82-17.95,173.91,173.91,0,0,1,50.6-3.8A169.85,169.85,0,0,1,244.94,177a164.64,164.64,0,0,1,33.65,17.59L323,160.22C320.42,158.57,317.79,157,315.08,155.42Z" transform="translate(-4.96 -126.15)"/><g class="fc49ccfa-d7a3-4bf0-b32d-963e681ebeea"><polygon class="b4283cec-08d1-4d3a-bcfb-eed6aa6168a6" points="0 60.27 166.64 0 318.07 0 318.07 97.64 2.92 211.62 0 211.62 0 60.27"/></g><path class="b4283cec-08d1-4d3a-bcfb-eed6aa6168a6" d="M348.94,329.81c0,.13,0,.23,0,.35l0,.66q0,.66-.06,1.23c-.21,4.05-.32,6.21-.32,6.21l77.77-1s-.21-2.53-.58-7.27c-.07-.71-.13-1.46-.2-2.26,0-.39-.07-.8-.11-1.21l-.06-.63c0-.2,0-.39-.07-.6-.19-1.6-.4-3.36-.62-5.26s-.55-3.92-.89-6.08c-.18-1.08-.37-2.19-.56-3.34q-.15-.86-.3-1.74c-.11-.58-.23-1.18-.34-1.78l-.73-3.71c-.26-1.26-.56-2.55-.85-3.88-.15-.66-.3-1.32-.45-2s-.33-1.35-.5-2c-.35-1.37-.68-2.78-1.07-4.2-1.5-5.7-3.38-11.79-5.66-18.18a223.24,223.24,0,0,0-19.5-40.84,216.42,216.42,0,0,0-14.58-21.1c-2.7-3.5-5.59-6.93-8.57-10.36l-2.29-2.54L367.18,197,366,195.72l-2.38-2.51-2.46-2.48-1.23-1.24-1.26-1.22-2.55-2.44-2.61-2.4-1.31-1.2-1.34-1.18-2.71-2.36-2.77-2.3L344,175.24l-1.42-1.13-2.85-2.25L337,169.8l-30.65,48.53.17.18,1.8,2,1.75,2,.87,1,.84,1,1.67,2,1.62,2,.8,1,.77,1,1.54,2c.5.68,1,1.37,1.48,2l.74,1,.7,1,1.41,2c1.81,2.76,3.56,5.49,5.15,8.24a156.46,156.46,0,0,1,18,46.31c1,4.56,1.69,8.85,2.18,12.83.14,1,.22,2,.33,2.93.06.47.11.95.16,1.41s.08.93.11,1.39c.08.91.15,1.8.23,2.67s.1,1.73.14,2.55c0,.42.05.82.08,1.22l0,1.2c0,.78.06,1.54.08,2.27,0,1.47,0,2.85,0,4.14s0,2.47-.06,3.55Z" transform="translate(-4.96 -126.15)"/><g class="e2ff002b-2635-48d9-a640-fc17324556fa"><polygon class="b4283cec-08d1-4d3a-bcfb-eed6aa6168a6" points="301.36 53.87 329.61 43.66 405.98 43.66 421.31 86.05 421.31 211.99 420.98 212.11 301.36 212.11 301.36 53.87"/><polygon class="b4283cec-08d1-4d3a-bcfb-eed6aa6168a6" points="421.31 86.05 405.98 43.66 421.31 43.66 421.31 86.05"/></g><path class="b4283cec-08d1-4d3a-bcfb-eed6aa6168a6" d="M287.59,201.15,165.9,295.27a37.91,37.91,0,0,0-14.64,10,39.79,39.79,0,0,0-2.87,3.55l-.87,1.29a38.11,38.11,0,0,0,55.66,50.61l1.2-1a39.29,39.29,0,0,0,3.27-3.19A38,38,0,0,0,216.2,341L320.71,175.53ZM180.64,346.05a16.91,16.91,0,1,1,16.91-16.91A16.91,16.91,0,0,1,180.64,346.05Z" transform="translate(-4.96 -126.15)"/></svg>